<?xml version="1.0" encoding="utf-8"?>
<!-- Generator: Adobe Illustrator 16.0.0, SVG Export Plug-In . SVG Version: 6.00 Build 0)  -->
<!DOCTYPE svg PUBLIC "-//W3C//DTD SVG 1.1//EN" "http://www.w3.org/Graphics/SVG/1.1/DTD/svg11.dtd">
<svg version="1.1" id="Layer_1" xmlns="http://www.w3.org/2000/svg" xmlns:xlink="http://www.w3.org/1999/xlink" x="0px" y="0px"
	 width="50px" height="55px" viewBox="0 0 50 55" enable-background="new 0 0 50 55" xml:space="preserve">
<g>
	<circle fill="#F8AB30" cx="9.469" cy="45.555" r="7.626"/>
	<circle fill="#FFE76F" cx="9.469" cy="45.555" r="7.102"/>
	<circle fill="#F8AB30" cx="9.469" cy="45.555" r="6.345"/>
	<g>
		<defs>
			<circle id="SVGID_1_" cx="9.468" cy="45.539" r="6.383"/>
		</defs>
		<clipPath id="SVGID_2_">
			<use xlink:href="#SVGID_1_"  overflow="visible"/>
		</clipPath>
		
			<rect x="9.258" y="35.794" transform="matrix(-0.9978 0.0658 -0.0658 -0.9978 22.0353 90.2377)" clip-path="url(#SVGID_2_)" fill="#FFE76F" width="0.55" height="19.375"/>
		
			<rect x="9.193" y="35.867" transform="matrix(-0.0657 -0.9978 0.9978 -0.0657 -35.3657 57.9954)" clip-path="url(#SVGID_2_)" fill="#FFE76F" width="0.55" height="19.374"/>
		
			<rect x="9.12" y="35.894" transform="matrix(-0.7519 -0.6593 0.6593 -0.7519 -13.4474 86.0515)" clip-path="url(#SVGID_2_)" fill="#FFE76F" width="0.696" height="19.324"/>
		
			<rect x="9.119" y="35.877" transform="matrix(0.6582 -0.7528 0.7528 0.6582 -31.0473 22.6921)" clip-path="url(#SVGID_2_)" fill="#FFE76F" width="0.697" height="19.323"/>
	</g>
	<g>
		<path fill="#DD6E46" d="M8.604,43.61c0,0,0.174-1.106-0.39-0.846C7.65,43.024,8.604,43.61,8.604,43.61z"/>
		<path fill="#DD6E46" d="M10.49,47.603c0,0-0.234,1.094,0.343,0.865C11.41,48.24,10.49,47.603,10.49,47.603z"/>
	</g>
	<g>
		<path fill="#DD6E46" d="M8.723,47.688c0,0-0.905,0.658-0.322,0.873S8.723,47.688,8.723,47.688z"/>
		<path fill="#DD6E46" d="M10.213,43.531c0,0,0.939-0.608,0.37-0.854C10.013,42.43,10.213,43.531,10.213,43.531z"/>
	</g>
	<g>
		<path fill="#DD6E46" d="M11.541,44.687c0,0,1.105,0.174,0.846-0.391C12.126,43.732,11.541,44.687,11.541,44.687z"/>
		<path fill="#DD6E46" d="M7.548,46.572c0,0-1.095-0.234-0.866,0.343S7.548,46.572,7.548,46.572z"/>
	</g>
	<g>
		<path fill="#DD6E46" d="M7.463,44.777c0,0-0.659-0.904-0.874-0.322C6.375,45.038,7.463,44.777,7.463,44.777z"/>
		<path fill="#DD6E46" d="M11.621,46.268c0,0,0.608,0.939,0.854,0.369C12.722,46.067,11.621,46.268,11.621,46.268z"/>
	</g>
</g>
<g>
	
		<path fill="#87BD24" stroke="#71902C" stroke-width="0.9763" stroke-linecap="round" stroke-linejoin="round" stroke-miterlimit="10" d="
		M12.85,31.584c0,0,6.524-0.348,9.563,2.598c3.218-2.01,6.202-4.065,6.202-4.065s-2.455-2.825,1.234-8.57
		c-1.043-1.13-4.54,1.338-4.775,2.476c-0.758-1.619-1.995-1.829-1.624-7.778c-2.265,1.446-2.775,2.915-3.207,5.542
		c-1.857-1.277-3.824-3.238-4.562-5.286c0,0-1.993,3.297,1.674,8.047c-2.034,0.125-3.832,0.131-6.179,2.314
		c3.594-1.262,6.803,2.076,6.803,2.076S15.115,28.852,12.85,31.584z"/>
	<path fill="#FFCB00" stroke="#FFDC00" stroke-width="0.7036" stroke-miterlimit="10" d="M38.722,35.736
		c-4.94-7.537-9.826-8.286-13.455-6.123c-0.693,0.297-2.648,1.465-2.659,1.576c-3.431,2.467-5.354,7.849-0.413,15.384
		c4.914,7.493,10.725,6.797,13.757,5.008c0.002,0.001,1.918-1.064,1.915-1.067C41.276,47.938,43.636,43.229,38.722,35.736z"/>
	<g>
		
			<rect x="22.527" y="29.749" transform="matrix(-0.9792 -0.203 0.203 -0.9792 37.7455 78.8593)" fill="#FFDF00" width="0.779" height="15.49"/>
		
			<rect x="28.049" y="28.302" transform="matrix(-0.9787 -0.2053 0.2053 -0.9787 48.1027 84.605)" fill="#FFDF00" width="0.78" height="23.011"/>
		
			<rect x="33.335" y="31.739" transform="matrix(-0.9784 -0.2067 0.2067 -0.9784 57.9633 90.8002)" fill="#FFDF00" width="0.78" height="21.267"/>
		
			<rect x="38.734" y="38.577" transform="matrix(-0.9789 -0.2043 0.2043 -0.9789 68.3554 95.8208)" fill="#FFDF00" width="0.779" height="11.609"/>
		
			<rect x="29.903" y="25.284" transform="matrix(-0.2029 0.9792 -0.9792 -0.2029 66.7172 7.5322)" fill="#FFDF00" width="0.78" height="11.276"/>
		
			<rect x="29.78" y="26.184" transform="matrix(-0.2043 0.9789 -0.9789 -0.2043 72.2733 14.683)" fill="#FFDF00" width="0.779" height="21.061"/>
		
			<rect x="30.094" y="31.338" transform="matrix(-0.2055 0.9787 -0.9787 -0.2055 78.4368 21.5176)" fill="#FFDF00" width="0.779" height="22.519"/>
		
			<rect x="29.955" y="40.443" transform="matrix(-0.2031 0.9792 -0.9792 -0.2031 84.0678 28.7271)" fill="#FFDF00" width="0.779" height="16.26"/>
	</g>
	<path fill="none" d="M38.968,35.482c-5.078-7.745-11.813-7.453-15.542-5.229c-0.003-0.003-0.005-0.007-0.005-0.007
		s0.054-0.032,0.002,0.004c-0.051,0.032-0.002-0.003-0.002-0.003s0.003,0.003,0.005,0.006c-3.526,2.536-6.521,8.623-1.443,16.368
		c5.05,7.7,11.849,6.598,15.115,4.578c0.001,0,0.494-0.33,0.929-0.605C39.893,48.249,44.019,43.185,38.968,35.482z"/>
</g>
<g>
	
		<path fill="#20A84A" stroke="#009139" stroke-width="0.7125" stroke-linecap="round" stroke-linejoin="round" stroke-miterlimit="10" d="
		M41.987,1.182c0,0-3.327,4.862,2.349,7.729C47.428,6.305,44.4,2.61,41.987,1.182z"/>
	
		<path fill="none" stroke="#B08E72" stroke-width="0.7125" stroke-linecap="round" stroke-linejoin="round" stroke-miterlimit="10" d="
		M43.833,10.949c0,0-0.715-2.447,3.714-2.402"/>
	<path fill="#EE7542" stroke="#E95314" stroke-width="0.7125" stroke-miterlimit="10" d="M32.454,9.983
		c-3.378,3.309-3.538,8.377-0.602,11.374c2.936,2.995,8.218,3.373,11.485,0.17c3.269-3.202,2.794-8.209-0.022-11.084
		C40.5,7.571,35.07,7.421,32.454,9.983z"/>
	<circle fill="#E95314" cx="42.817" cy="15.967" r="0.679"/>
	<circle fill="#E95314" cx="41.843" cy="19.141" r="0.678"/>
	<circle fill="#E95314" cx="38.799" cy="18.833" r="0.778"/>
	<circle fill="#E95314" cx="39.98" cy="16.305" r="0.377"/>
</g>
<g>
	<circle fill="#F8AB30" cx="43.802" cy="32.222" r="4.959"/>
	<circle fill="#FFE76F" cx="43.801" cy="32.222" r="4.618"/>
	<circle fill="#F8AB30" cx="43.802" cy="32.222" r="4.126"/>
	<g>
		<defs>
			<circle id="SVGID_3_" cx="43.801" cy="32.211" r="4.151"/>
		</defs>
		<clipPath id="SVGID_4_">
			<use xlink:href="#SVGID_3_"  overflow="visible"/>
		</clipPath>
		
			<rect x="43.665" y="25.874" transform="matrix(-0.9978 0.0656 -0.0656 -0.9978 89.703 61.4017)" clip-path="url(#SVGID_4_)" fill="#FFE76F" width="0.357" height="12.6"/>
		
			<rect x="43.622" y="25.922" transform="matrix(-0.0654 -0.9979 0.9979 -0.0654 14.5147 78.0374)" clip-path="url(#SVGID_4_)" fill="#FFE76F" width="0.358" height="12.599"/>
		
			<rect x="43.576" y="25.939" transform="matrix(-0.752 -0.6591 0.6591 -0.752 55.504 85.3259)" clip-path="url(#SVGID_4_)" fill="#FFE76F" width="0.452" height="12.567"/>
		
			<rect x="43.574" y="25.928" transform="matrix(0.658 -0.753 0.753 0.658 -9.2763 43.9957)" clip-path="url(#SVGID_4_)" fill="#FFE76F" width="0.453" height="12.566"/>
	</g>
	<g>
		<path fill="#DD6E46" d="M43.239,30.957c0,0,0.113-0.719-0.254-0.55C42.619,30.576,43.239,30.957,43.239,30.957z"/>
		<path fill="#DD6E46" d="M44.466,33.554c0,0-0.152,0.711,0.223,0.563C45.064,33.968,44.466,33.554,44.466,33.554z"/>
	</g>
	<g>
		<path fill="#DD6E46" d="M43.316,33.609c0,0-0.588,0.428-0.209,0.567S43.316,33.609,43.316,33.609z"/>
		<path fill="#DD6E46" d="M44.286,30.906c0,0,0.61-0.396,0.24-0.556C44.156,30.189,44.286,30.906,44.286,30.906z"/>
	</g>
	<g>
		<path fill="#DD6E46" d="M45.149,31.657c0,0,0.719,0.113,0.55-0.254C45.53,31.037,45.149,31.657,45.149,31.657z"/>
		<path fill="#DD6E46" d="M42.554,32.884c0,0-0.713-0.152-0.564,0.223S42.554,32.884,42.554,32.884z"/>
	</g>
	<g>
		<path fill="#DD6E46" d="M42.497,31.716c0,0-0.428-0.588-0.567-0.209S42.497,31.716,42.497,31.716z"/>
		<path fill="#DD6E46" d="M45.201,32.686c0,0,0.396,0.61,0.556,0.24C45.917,32.555,45.201,32.686,45.201,32.686z"/>
	</g>
</g>
<g>
	
		<path fill="#20A84A" stroke="#009139" stroke-width="0.528" stroke-linecap="round" stroke-linejoin="round" stroke-miterlimit="10" d="
		M2.85,9.063c0,0,0.068,4.365,4.728,3.67C8.333,9.834,4.92,8.895,2.85,9.063z"/>
	
		<path fill="none" stroke="#B08E72" stroke-width="0.528" stroke-linecap="round" stroke-linejoin="round" stroke-miterlimit="10" d="
		M8.146,14.182c0,0-1.479-1.174,1.219-3.042"/>
	<path fill="#EE7542" stroke="#E95314" stroke-width="0.528" stroke-miterlimit="10" d="M0.85,18.466
		c-0.628,3.447,1.444,6.581,4.503,7.139c3.056,0.555,6.414-1.477,7.02-4.813c0.608-3.335-1.822-6.161-4.756-6.694
		C4.685,13.564,1.335,15.798,0.85,18.466z"/>
	<circle fill="#E95314" cx="9.679" cy="17.652" r="0.503"/>
	<circle fill="#E95314" cx="10.447" cy="19.988" r="0.503"/>
	<circle fill="#E95314" cx="8.473" cy="21.105" r="0.577"/>
	<circle fill="#E95314" cx="8.107" cy="19.07" r="0.28"/>
</g>
<g>
	<circle fill="#F8AB30" cx="19.885" cy="8.305" r="5.876"/>
	<circle fill="#FFE76F" cx="19.885" cy="8.305" r="5.472"/>
	<circle fill="#F8AB30" cx="19.885" cy="8.305" r="4.889"/>
	<g>
		<defs>
			<circle id="SVGID_5_" cx="19.884" cy="8.293" r="4.918"/>
		</defs>
		<clipPath id="SVGID_6_">
			<use xlink:href="#SVGID_5_"  overflow="visible"/>
		</clipPath>
		
			<rect x="19.722" y="0.784" transform="matrix(-0.9978 0.0658 -0.0658 -0.9978 40.3674 15.168)" clip-path="url(#SVGID_6_)" fill="#FFE76F" width="0.423" height="14.929"/>
		
			<rect x="19.672" y="0.841" transform="matrix(-0.0656 -0.9978 0.9978 -0.0656 12.9017 28.6912)" clip-path="url(#SVGID_6_)" fill="#FFE76F" width="0.424" height="14.927"/>
		
			<rect x="19.617" y="0.861" transform="matrix(-0.7521 -0.6591 0.6591 -0.7521 29.3656 27.6584)" clip-path="url(#SVGID_6_)" fill="#FFE76F" width="0.536" height="14.89"/>
		
			<rect x="19.616" y="0.848" transform="matrix(0.6582 -0.7529 0.7529 0.6582 0.5538 17.8043)" clip-path="url(#SVGID_6_)" fill="#FFE76F" width="0.536" height="14.889"/>
	</g>
	<g>
		<path fill="#DD6E46" d="M19.219,6.807c0,0,0.134-0.852-0.301-0.651C18.484,6.355,19.219,6.807,19.219,6.807z"/>
		<path fill="#DD6E46" d="M20.672,9.883c0,0-0.181,0.842,0.264,0.667C21.381,10.374,20.672,9.883,20.672,9.883z"/>
	</g>
	<g>
		<path fill="#DD6E46" d="M19.31,9.949c0,0-0.697,0.507-0.248,0.672C19.511,10.787,19.31,9.949,19.31,9.949z"/>
		<path fill="#DD6E46" d="M20.459,6.747c0,0,0.723-0.47,0.285-0.659C20.305,5.897,20.459,6.747,20.459,6.747z"/>
	</g>
	<g>
		<path fill="#DD6E46" d="M21.482,7.636c0,0,0.852,0.134,0.651-0.301C21.933,6.901,21.482,7.636,21.482,7.636z"/>
		<path fill="#DD6E46" d="M18.406,9.089c0,0-0.845-0.18-0.669,0.264C17.913,9.797,18.406,9.089,18.406,9.089z"/>
	</g>
	<g>
		<path fill="#DD6E46" d="M18.339,7.706c0,0-0.507-0.697-0.672-0.248C17.501,7.907,18.339,7.706,18.339,7.706z"/>
		<path fill="#DD6E46" d="M21.543,8.854c0,0,0.469,0.723,0.659,0.285C22.391,8.7,21.543,8.854,21.543,8.854z"/>
	</g>
</g>
</svg>
