<?xml version="1.0" encoding="utf-8"?>
<!-- Generator: Adobe Illustrator 16.0.0, SVG Export Plug-In . SVG Version: 6.00 Build 0)  -->
<!DOCTYPE svg PUBLIC "-//W3C//DTD SVG 1.1//EN" "http://www.w3.org/Graphics/SVG/1.1/DTD/svg11.dtd">
<svg version="1.1" id="Layer_1" xmlns="http://www.w3.org/2000/svg" xmlns:xlink="http://www.w3.org/1999/xlink" x="0px" y="0px"
	 width="50px" height="55px" viewBox="0 0 50 55" enable-background="new 0 0 50 55" xml:space="preserve">
<g>
	
		<path fill="none" stroke="#B08E72" stroke-width="0.7203" stroke-linecap="round" stroke-linejoin="round" stroke-miterlimit="10" d="
		M37.278,10.115c0,0-2.48-3.468-5.729-1.76"/>
	
		<path fill="#20A84A" stroke="#009139" stroke-width="0.7203" stroke-linecap="round" stroke-linejoin="round" stroke-miterlimit="10" d="
		M38.336,0.78c0,0,4.072,5.035-1.413,7.924C33.334,6.605,38.336,0.78,38.336,0.78z"/>
	<path fill="#F0834C" stroke="#EC6740" stroke-width="0.7203" stroke-miterlimit="10" d="M38.886,8.134
		c-1.593,0.948-0.743,1.554-1.517,2.19c-0.926,0.377-1.054-0.659-2.645,0.29c-1.027,0.61-4.797,3.465-2.048,8.08
		c2.748,4.615,8.093,5.859,9.472,5.039c1.338-0.797,0.974-1.289,2.011-2.01c1.13-0.57,1.389-0.016,2.728-0.814
		c1.378-0.82,2.828-6.112,0.078-10.728C44.217,5.568,39.91,7.524,38.886,8.134z"/>
	
		<path fill="#F0834C" stroke="#EC6740" stroke-width="0.7203" stroke-linecap="round" stroke-linejoin="round" stroke-miterlimit="10" d="
		M33.05,14.834c0.506,3.148,3.408,6.404,6.555,7.125"/>
</g>
<g>
	
		<path fill="none" stroke="#B08E72" stroke-width="0.6731" stroke-linecap="round" stroke-linejoin="round" stroke-miterlimit="10" d="
		M40.487,39.443c0,0,0.501-3.952-2.812-4.842"/>
	
		<path fill="#20A84A" stroke="#009139" stroke-width="0.6731" stroke-linecap="round" stroke-linejoin="round" stroke-miterlimit="10" d="
		M47.137,33.713c0,0-0.402,6.038-5.997,4.537C40.01,34.534,47.137,33.713,47.137,33.713z"/>
	<path fill="#F0834C" stroke="#EC6740" stroke-width="0.6731" stroke-miterlimit="10" d="M42.847,39.106
		c-1.694-0.361-1.496,0.594-2.429,0.539c-0.875-0.33-0.306-1.121-1.999-1.48c-1.091-0.232-5.489-0.668-6.532,4.242
		c-1.045,4.909,1.831,9.154,3.298,9.466c1.424,0.304,1.485-0.265,2.654-0.101c1.137,0.325,0.962,0.869,2.386,1.173
		c1.468,0.311,5.82-2.397,6.863-7.308C48.131,40.729,43.937,39.338,42.847,39.106z"/>
	
		<path fill="#F0834C" stroke="#EC6740" stroke-width="0.6731" stroke-linecap="round" stroke-linejoin="round" stroke-miterlimit="10" d="
		M34.593,39.996c-1.651,2.48-1.728,6.557-0.027,9.046"/>
</g>
<g>
	<path fill="#87BD24" stroke="#71902C" stroke-linecap="round" stroke-linejoin="round" stroke-miterlimit="10" d="M17.504,33.967
		c0.431-0.718,1.004-1.426,1.958-2.01c0.621,0.928,0.866,1.814,0.958,2.647c0.044,0.641,0.008,1.593-0.175,2.351
		c-0.03,0.109-0.062,0.545-0.097,0.545c0.005,0,0.011,0,0.016,0c-0.32,1-0.966,2.08-2.111,3.252
		c-0.137-0.02-0.286-0.137-0.433-0.167c0.004,0.001-0.106,0.091-0.102,0.091c0,0-0.14,0.115-0.144,0.112l0.003-0.013l0.231-0.302
		c-0.036,0.048-0.272-0.101-0.403-0.133c-0.551-1.548-0.634-2.926-0.466-4.06c0.004,0.003,0.007,0.005,0.011,0.006
		c0.01-0.103,0.02-0.214,0.037-0.324C16.94,35.199,17.197,34.531,17.504,33.967z"/>
	<path fill="#87BD24" stroke="#71902C" stroke-linecap="round" stroke-linejoin="round" stroke-miterlimit="10" d="M25.779,40.516
		c0.602-0.584,1.158-1.305,1.506-2.369c-1.042-0.389-1.963-0.425-2.795-0.322c-0.635,0.103-1.322,0.302-2.018,0.655
		c-0.098,0.054-0.191,0.108-0.28,0.164c0-0.004,0-0.008-0.002-0.015c-0.998,0.565-2.033,1.471-2.913,2.857
		c0.055,0.129,0.087,0.273,0.149,0.409c-0.002-0.005,0.529,0.139,0.528,0.134C19.954,42.028,20.5,42.198,20.5,42.2s0,0.002,0,0.002
		l-0.417-0.293c-0.037,0.046-0.169,0.242-0.107,0.361c1.632,0.181,2.826-0.056,3.891-0.479c-0.003-0.004-0.085-0.007-0.089-0.011
		c0.098-0.034,0.161-0.068,0.265-0.11C24.752,41.348,25.302,40.945,25.779,40.516z"/>
	
		<path fill="#87BD24" stroke="#71902C" stroke-width="1.1617" stroke-linecap="round" stroke-linejoin="round" stroke-miterlimit="10" d="
		M23.016,37.751c0.284-0.788,0.469-1.682,0.314-2.788c-1.11,0.105-1.952,0.479-2.653,0.937c-0.525,0.372-1.054,0.853-1.525,1.474
		c-0.064,0.092-0.123,0.184-0.178,0.271c-0.003-0.004-0.006-0.007-0.008-0.013c-0.649,0.946-1.18,2.217-1.364,3.848
		c0.105,0.09-0.018,0.479,0.1,0.573c-0.004-0.003-0.223,0.266-0.227,0.265c0-0.002,0.018,0.014,0.022,0.017l0.073,0.058L18,41.846
		c0.003-0.002,0.209,0.122,0.317,0.201c1.546-0.555,2.643-1.376,3.414-2.226c-0.006-0.002-0.017-0.009-0.022-0.011
		c0.074-0.074,0.147-0.153,0.222-0.237C22.427,38.973,22.776,38.348,23.016,37.751z"/>
	
		<path fill="#87BD24" stroke="#71902C" stroke-width="0.9459" stroke-linecap="round" stroke-linejoin="round" stroke-miterlimit="10" d="
		M25.546,43.041c0.758-0.356,1.519-0.857,2.195-1.75c-0.861-0.708-1.72-1.041-2.542-1.215c-0.633-0.106-1.347-0.142-2.119-0.033
		c-0.111,0.018-0.217,0.04-0.318,0.063c0.001-0.006,0.001-0.009,0.003-0.014c-1.128,0.21-2.4,0.732-3.684,1.755
		c0.011,0.138-0.006,0.287,0.009,0.437c-0.001-0.006-0.001-0.01-0.002-0.014c0,0,0.012-0.063,0.014-0.058
		c-0.001,0,0.01-0.085,0.009-0.085h0.001c-0.062,0,0.059,0.365,0.079,0.496c1.485,0.703,2.838,0.962,3.984,0.907
		c-0.001-0.005-0.006,0.014-0.007,0.01c0.104,0,0.211,0.012,0.323,0.005C24.268,43.472,24.955,43.294,25.546,43.041z"/>
	<path fill="#87BD24" stroke="#71902C" stroke-linecap="round" stroke-linejoin="round" stroke-miterlimit="10" d="M14.901,35.132
		c0.173-0.82,0.484-1.676,1.197-2.536c0.889,0.674,1.409,1.433,1.766,2.19c0.251,0.592,0.449,1.281,0.522,2.057
		c0.006,0.111,0.009,0.221,0.009,0.324c0.004-0.001,0.008-0.004,0.014-0.005c0.055,1.145-0.161,2.505-0.863,3.987
		c-0.137,0.022-0.277,0.071-0.425,0.092c0.005-0.001-0.182,0.241-0.177,0.241c0.001-0.002-0.216,0.243-0.218,0.243l-0.068-0.055
		l0.336-0.426c-0.063,0.078-0.231-0.036-0.365-0.028c-1.024-1.283-1.521-2.717-1.73-3.717c0.005,0,0.023,0,0.028,0
		c-0.025,0-0.044-0.174-0.064-0.283C14.758,36.445,14.792,35.765,14.901,35.132z"/>
	
		<ellipse transform="matrix(0.7843 0.6203 -0.6203 0.7843 33.1831 3.2838)" fill="#EF7D80" stroke="#E94A48" stroke-width="0.8318" stroke-miterlimit="10" cx="11.869" cy="49.365" rx="2.238" ry="2.929"/>
	
		<ellipse transform="matrix(0.7842 0.6205 -0.6205 0.7842 34.4852 0.9411)" fill="#EF7D80" stroke="#E94A48" stroke-width="0.8318" stroke-miterlimit="10" cx="15.889" cy="50.055" rx="2.237" ry="2.93"/>
	
		<ellipse transform="matrix(0.7844 0.6203 -0.6203 0.7844 30.8012 3.5275)" fill="#EF7D80" stroke="#E94A48" stroke-width="0.8318" stroke-miterlimit="10" cx="10.327" cy="46.068" rx="2.237" ry="2.929"/>
	
		<ellipse transform="matrix(0.7843 0.6204 -0.6204 0.7843 27.2507 0.7272)" fill="#EF7D80" stroke="#E94A48" stroke-width="0.8318" stroke-miterlimit="10" cx="12.58" cy="39.55" rx="2.238" ry="2.928"/>
	
		<ellipse transform="matrix(0.7842 0.6205 -0.6205 0.7842 33.5718 -3.2883)" fill="#EF7D80" stroke="#E94A48" stroke-width="0.8318" stroke-miterlimit="10" cx="21.513" cy="46.619" rx="2.238" ry="2.93"/>
	
		<ellipse transform="matrix(0.7843 0.6204 -0.6204 0.7843 28.0538 -0.7976)" fill="#EF7D80" stroke="#E94A48" stroke-width="0.8318" stroke-miterlimit="10" cx="15.174" cy="39.943" rx="2.238" ry="2.928"/>
	
		<ellipse transform="matrix(0.7842 0.6205 -0.6205 0.7842 28.45 3.0075)" fill="#EF7D80" stroke="#E94A48" stroke-width="0.8318" stroke-miterlimit="10" cx="9.901" cy="42.411" rx="2.237" ry="2.929"/>
	
		<ellipse transform="matrix(0.7842 0.6205 -0.6205 0.7842 34.7144 -1.4857)" fill="#EF7D80" stroke="#E94A48" stroke-width="0.8318" stroke-miterlimit="10" cx="19.493" cy="49.171" rx="2.237" ry="2.929"/>
	
		<ellipse transform="matrix(0.7843 0.6204 -0.6204 0.7843 29.3823 0.8915)" fill="#EF7D80" stroke="#E94A48" stroke-width="0.8318" stroke-miterlimit="10" cx="13.409" cy="42.698" rx="2.238" ry="2.929"/>
	
		<ellipse transform="matrix(0.7843 0.6204 -0.6204 0.7843 31.5464 -3.2738)" fill="#EF7D80" stroke="#E94A48" stroke-width="0.8318" stroke-miterlimit="10" cx="20.481" cy="43.727" rx="2.238" ry="2.93"/>
	
		<ellipse transform="matrix(0.7841 0.6207 -0.6207 0.7841 32.94 -1.1047)" fill="#EF7D80" stroke="#E94A48" stroke-width="0.8318" stroke-miterlimit="10" cx="18.058" cy="46.79" rx="2.238" ry="2.93"/>
	
		<ellipse transform="matrix(0.7841 0.6207 -0.6207 0.7841 29.9877 -1.7611)" fill="#EF7D80" stroke="#E94A48" stroke-width="0.8318" stroke-miterlimit="10" cx="17.525" cy="42.218" rx="2.238" ry="2.929"/>
	
		<ellipse transform="matrix(0.7842 0.6205 -0.6205 0.7842 32.0464 1.4844)" fill="#EF7D80" stroke="#E94A48" stroke-width="0.8318" stroke-miterlimit="10" cx="13.889" cy="46.813" rx="2.238" ry="2.929"/>
</g>
<g>
	<path fill="#009F42" stroke="#64B87A" stroke-width="0.5546" stroke-miterlimit="10" d="M37.403,28.525
		c0,0-2.241-4.943-6.695-2.925C32.7,28.7,35.093,29.497,37.403,28.525z"/>
	<path fill="#009F42" stroke="#64B87A" stroke-width="0.5546" stroke-miterlimit="10" d="M30.781,35.93c0,0,0.94-5.345-3.876-6.192
		C26.8,33.42,28.326,35.428,30.781,35.93z"/>
	<path fill="#009F42" stroke="#64B87A" stroke-width="0.5546" stroke-miterlimit="10" d="M28.033,27.441c0,0,0.94-5.345-3.876-6.193
		C24.052,24.932,25.577,26.939,28.033,27.441z"/>
	<path fill="#009F42" stroke="#64B87A" stroke-width="0.5546" stroke-miterlimit="10" d="M25.306,33.262
		c0,0,3.126-0.834,2.375-3.651C25.662,30.479,24.96,31.808,25.306,33.262z"/>
	<circle fill="#5C567F" stroke="#746AAE" stroke-width="0.5546" stroke-miterlimit="10" cx="30.017" cy="29.07" r="2.95"/>
	<circle fill="#5C567F" stroke="#746AAE" stroke-width="0.5546" stroke-miterlimit="10" cx="29.465" cy="24.512" r="2.951"/>
	<circle fill="#5C567F" stroke="#746AAE" stroke-width="0.5546" stroke-miterlimit="10" cx="25.278" cy="27.935" r="2.95"/>
	<circle fill="#ECE3F2" cx="24.157" cy="27.815" r="0.451"/>
	<circle fill="#ECE3F2" cx="28.829" cy="29.368" r="0.451"/>
	<circle fill="#ECE3F2" cx="27.905" cy="23.857" r="0.451"/>
</g>
<g>
	<circle fill="#6E7382" stroke="#324A78" stroke-width="0.892" stroke-miterlimit="10" cx="22.75" cy="14.68" r="3.864"/>
	
		<path fill="none" stroke="#B08E72" stroke-width="0.892" stroke-linecap="round" stroke-linejoin="round" stroke-miterlimit="10" d="
		M13.721,1.601c0,0-0.103,3.789,5.896,5.388c-3.36-0.764-1.865-0.468-6.096,5.532"/>
	<circle fill="#6E7382" stroke="#324A78" stroke-width="0.892" stroke-miterlimit="10" cx="6.927" cy="27.869" r="3.864"/>
	<circle fill="#6E7382" stroke="#324A78" stroke-width="0.892" stroke-miterlimit="10" cx="5.896" cy="21.509" r="3.864"/>
	<circle fill="#6E7382" stroke="#324A78" stroke-width="0.892" stroke-miterlimit="10" cx="12.418" cy="24.582" r="3.864"/>
	<circle fill="#6E7382" stroke="#324A78" stroke-width="0.892" stroke-miterlimit="10" cx="17.353" cy="19.734" r="3.865"/>
	<circle fill="#6E7382" stroke="#324A78" stroke-width="0.892" stroke-miterlimit="10" cx="11.477" cy="17.486" r="3.865"/>
	<circle fill="#6E7382" stroke="#324A78" stroke-width="0.892" stroke-miterlimit="10" cx="6.194" cy="14.695" r="3.864"/>
	<circle fill="#6E7382" stroke="#324A78" stroke-width="0.892" stroke-miterlimit="10" cx="6.325" cy="7.816" r="3.865"/>
	<circle fill="#6E7382" stroke="#324A78" stroke-width="0.892" stroke-miterlimit="10" cx="17.547" cy="12.689" r="3.864"/>
	<circle fill="#6E7382" stroke="#324A78" stroke-width="0.892" stroke-miterlimit="10" cx="12.511" cy="10.761" r="3.864"/>
	<circle fill="#324A78" cx="17.738" cy="14.064" r="0.67"/>
	<circle fill="#324A78" cx="5.662" cy="7.904" r="0.67"/>
	<circle fill="#324A78" cx="5.378" cy="15.685" r="0.67"/>
	<circle fill="#324A78" cx="10.997" cy="18.605" r="0.67"/>
	<circle fill="#324A78" cx="16.872" cy="20.854" r="0.67"/>
	<circle fill="#324A78" cx="11.602" cy="25.573" r="0.67"/>
	<circle fill="#324A78" cx="5.48" cy="22.46" r="0.67"/>
	<circle fill="#324A78" cx="6.149" cy="29.26" r="0.67"/>
	<circle fill="#324A78" cx="12.031" cy="11.88" r="0.67"/>
	<circle fill="#324A78" cx="24.063" cy="15.138" r="0.67"/>
</g>
</svg>
