<?xml version="1.0" encoding="utf-8"?>
<!-- Generator: Adobe Illustrator 16.0.0, SVG Export Plug-In . SVG Version: 6.00 Build 0)  -->
<!DOCTYPE svg PUBLIC "-//W3C//DTD SVG 1.1//EN" "http://www.w3.org/Graphics/SVG/1.1/DTD/svg11.dtd">
<svg version="1.1" id="Layer_1" xmlns="http://www.w3.org/2000/svg" xmlns:xlink="http://www.w3.org/1999/xlink" x="0px" y="0px"
	 width="50px" height="55px" viewBox="0 0 50 55" enable-background="new 0 0 50 55" xml:space="preserve">
<g>
	<circle fill="#B7CF3F" cx="8.178" cy="16.218" r="6.542"/>
	<circle fill="#E6E99E" cx="8.178" cy="16.218" r="6.093"/>
	<circle fill="#B7CF3F" cx="8.178" cy="16.219" r="5.443"/>
	<g>
		<defs>
			<circle id="SVGID_1_" cx="8.177" cy="16.204" r="5.476"/>
		</defs>
		<clipPath id="SVGID_2_">
			<use xlink:href="#SVGID_1_"  overflow="visible"/>
		</clipPath>
		
			<rect x="7.998" y="7.845" transform="matrix(-0.9978 0.0664 -0.0664 -0.9978 17.5206 31.7284)" clip-path="url(#SVGID_2_)" fill="#E6E99E" width="0.471" height="16.621"/>
		
			<rect x="7.942" y="7.907" transform="matrix(-0.0662 -0.9978 0.9978 -0.0662 -7.4622 25.4524)" clip-path="url(#SVGID_2_)" fill="#E6E99E" width="0.472" height="16.621"/>
		
			<rect x="7.88" y="7.931" transform="matrix(-0.7526 -0.6585 0.6585 -0.7526 3.6521 33.8107)" clip-path="url(#SVGID_2_)" fill="#E6E99E" width="0.597" height="16.577"/>
		
			<rect x="7.879" y="7.916" transform="matrix(0.6599 -0.7514 0.7514 0.6599 -9.3943 11.6556)" clip-path="url(#SVGID_2_)" fill="#E6E99E" width="0.598" height="16.578"/>
	</g>
</g>
<g>
	<g>
		<path fill="#696A21" d="M27.65,1.575c-2.781-0.132-5.384-0.035-8.106,0.548c-0.926,0.199-1.874,0.412-2.679,0.912
			c-0.805,0.501-1.534,1.556-1.539,2.504c-0.623,0.714-0.774,1.986-0.501,2.896c0.274,0.907,0.842,1.692,1.407,2.456
			c1.657,2.237,3.544,4.03,5.718,5.771c2.173,1.739,4.865,2.972,7.647,2.914c3.604-0.076,6.857-2.234,8.197-5.548
			c1.185-3.373,0.173-7.145-2.48-9.582C33.264,2.562,30.431,1.706,27.65,1.575z"/>
		<path fill="#363519" d="M37.905,14.065c-1.353,3.343-4.611,5.55-8.305,5.626c-2.547,0.053-5.29-0.992-7.721-2.939
			c-2.464-1.972-4.235-3.759-5.74-5.793c-0.533-0.719-1.138-1.535-1.424-2.492c-0.257-0.854-0.169-2.177,0.497-2.973
			c0.027-1.035,0.835-2.086,1.593-2.558c0.848-0.527,1.84-0.74,2.716-0.928c2.473-0.53,4.983-0.699,8.136-0.551l0,0
			c3.113,0.147,5.859,1.178,7.737,2.901C38.11,6.858,39.099,10.668,37.905,14.065z M15.018,6.298
			c-0.259,0.687-0.257,1.513-0.081,2.103c0.277,0.917,0.869,1.715,1.39,2.42c1.493,2.017,3.25,3.79,5.697,5.749
			c2.39,1.916,5.079,2.939,7.572,2.889c3.6-0.074,6.775-2.223,8.091-5.477c1.162-3.304,0.199-7.016-2.45-9.451
			c-1.84-1.687-4.534-2.696-7.592-2.84c-3.133-0.147-5.622,0.021-8.076,0.546c-0.857,0.184-1.829,0.392-2.641,0.898
			c-0.716,0.445-1.479,1.439-1.483,2.405l-0.001,0.043l-0.028,0.032C15.244,5.812,15.113,6.046,15.018,6.298z"/>
	</g>
	<path fill="#9CB92B" d="M37.252,13.82c-1.251,3.073-4.257,5.104-7.666,5.174c-2.384,0.048-4.967-0.941-7.271-2.787
		c-2.415-1.934-4.146-3.68-5.614-5.663c-0.499-0.674-1.064-1.438-1.317-2.277c-0.164-0.546-0.135-1.255,0.073-1.806
		c0.081-0.216,0.185-0.397,0.31-0.54l0.141-0.163l0.002-0.216c0-0.189,0.042-0.394,0.124-0.609c0.208-0.551,0.655-1.102,1.14-1.403
		c0.744-0.463,1.673-0.663,2.494-0.838c2.413-0.516,4.866-0.683,7.957-0.537c2.947,0.141,5.542,1.105,7.296,2.719
		C37.432,7.179,38.345,10.69,37.252,13.82z"/>
	<path fill="#FFF1A5" d="M36.161,13.41c-1.08,2.625-3.667,4.359-6.599,4.42c-2.112,0.044-4.428-0.854-6.521-2.531
		c-2.333-1.868-4-3.548-5.406-5.446c-0.443-0.599-0.944-1.276-1.138-1.92c-0.091-0.301-0.071-0.748,0.047-1.061
		c0.045-0.12,0.087-0.171,0.099-0.186l0.426-0.489l0.003-0.648c0-0.018,0.003-0.085,0.049-0.205c0.118-0.312,0.398-0.66,0.666-0.826
		c0.571-0.355,1.396-0.532,2.123-0.688c2.31-0.496,4.671-0.654,7.657-0.512c2.678,0.126,5.01,0.983,6.566,2.413
		C36.293,7.714,37.089,10.726,36.161,13.41z"/>
	<g>
		<path fill="#C4A138" d="M33.692,12.476c-0.941,2.494-3.738,3.756-6.231,2.815c-1.21-0.457-2.302-1.407-2.998-2.604
			c-0.754-1.302-0.922-2.677-0.469-3.874c0.453-1.196,1.486-2.118,2.913-2.595c1.313-0.438,2.759-0.428,3.972,0.028
			C33.372,7.189,34.633,9.984,33.692,12.476z"/>
		<path fill="#823311" d="M30.671,6.791c2.197,0.83,3.306,3.284,2.478,5.48c-0.831,2.197-3.285,3.305-5.481,2.475
			c-2.198-0.83-3.959-3.53-3.128-5.727C25.367,6.822,28.474,5.961,30.671,6.791z"/>
	</g>
</g>
<g>
	<circle fill="#73B72B" stroke="#628037" stroke-width="0.6056" stroke-miterlimit="10" cx="26.385" cy="27.877" r="7.166"/>
	<g>
		<path fill="#FCD5AD" d="M26.178,25.892c0.114-0.386,0.3-0.386,0.414,0s0.468,0.501,0.787,0.256
			c0.318-0.246,0.469-0.136,0.334,0.243c-0.135,0.379,0.084,0.68,0.486,0.668s0.46,0.165,0.128,0.393s-0.332,0.6,0,0.828
			s0.274,0.405-0.128,0.395c-0.402-0.012-0.621,0.289-0.486,0.668s-0.016,0.487-0.334,0.242c-0.319-0.245-0.673-0.131-0.787,0.256
			c-0.114,0.386-0.3,0.386-0.414,0c-0.113-0.387-0.467-0.501-0.786-0.256c-0.319,0.245-0.469,0.137-0.334-0.242
			c0.135-0.379-0.084-0.68-0.486-0.668c-0.402,0.011-0.459-0.167-0.127-0.395c0.332-0.228,0.332-0.6,0-0.828
			c-0.333-0.228-0.275-0.404,0.127-0.393c0.402,0.012,0.621-0.29,0.486-0.668c-0.135-0.379,0.015-0.489,0.334-0.243
			C25.711,26.393,26.064,26.278,26.178,25.892z"/>
	</g>
	<g>
		<path fill="#628037" d="M26.37,24.864c0,0,0.913-1.226,0.066-1.271C25.589,23.549,26.37,24.864,26.37,24.864z"/>
		<path fill="#628037" d="M26.437,31.013c0,0-0.914,1.227-0.066,1.271S26.437,31.013,26.437,31.013z"/>
	</g>
	<g>
		<path fill="#628037" d="M24.149,25.727c0,0-0.222-1.514-0.852-0.946C22.667,25.349,24.149,25.727,24.149,25.727z"/>
		<path fill="#628037" d="M28.543,30.027c0,0,0.222,1.512,0.853,0.944C30.025,30.403,28.543,30.027,28.543,30.027z"/>
	</g>
	<g>
		<path fill="#628037" d="M28.497,25.679c0,0,1.513-0.222,0.945-0.852C28.873,24.197,28.497,25.679,28.497,25.679z"/>
		<path fill="#628037" d="M24.196,30.072c0,0-1.513,0.223-0.945,0.854C23.819,31.556,24.196,30.072,24.196,30.072z"/>
	</g>
	<g>
		<path fill="#628037" d="M29.477,27.844c0,0,1.228,0.913,1.271,0.065C30.792,27.063,29.477,27.844,29.477,27.844z"/>
		<path fill="#628037" d="M23.329,27.909c0,0-1.227-0.912-1.271-0.065C22.014,28.69,23.329,27.909,23.329,27.909z"/>
	</g>
	<g>
		<path fill="#628037" d="M24.753,23.434c0,0,0.245-0.812-0.205-0.675C24.099,22.896,24.753,23.434,24.753,23.434z"/>
		<path fill="#628037" d="M28.053,32.439c0,0-0.245,0.812,0.203,0.674C28.707,32.978,28.053,32.439,28.053,32.439z"/>
	</g>
	<g>
		<path fill="#628037" d="M22.069,29.978c0,0-0.833-0.158-0.649,0.274C21.603,30.686,22.069,29.978,22.069,29.978z"/>
		<path fill="#628037" d="M30.679,25.748c0,0,0.83,0.158,0.648-0.274C31.143,25.041,30.679,25.748,30.679,25.748z"/>
	</g>
	<g>
		<path fill="#628037" d="M28.422,23.586c0,0,0.746-0.4,0.331-0.622C28.339,22.743,28.422,23.586,28.422,23.586z"/>
		<path fill="#628037" d="M24.385,32.288c0,0-0.746,0.399-0.332,0.621C24.468,33.13,24.385,32.288,24.385,32.288z"/>
	</g>
	<g>
		<path fill="#628037" d="M30.827,29.713c0,0,0.429,0.732,0.635,0.309C31.667,29.599,30.827,29.713,30.827,29.713z"/>
		<path fill="#628037" d="M21.979,26.013c0,0-0.429-0.731-0.635-0.309C21.139,26.127,21.979,26.013,21.979,26.013z"/>
	</g>
</g>
<g>
	<path fill="#FFCB00" d="M7.706,49.132l-0.2,0.539c0,0,6.265,6.443,16.814,3.732c10.549-2.709,25.184-13.454,24.138-32.122
		c-1.06-8.501-5.489-11.624-5.489-11.624l-0.254-4.574c0,0-0.249-0.502-0.976-0.443c-0.727,0.059-1.004,0.348,0.001,5.325
		c0.073,4.636,0.903,13.458-9.249,26.254C20.863,48.531,11.084,48.72,7.706,49.132z"/>
	<path fill="#FDC724" d="M43.991,11.362c1.883,8.862-0.688,17.145-3.883,23.25c-3.196,6.107-12.8,13.916-19.53,15.923
		c-4.527,1.349-8.595,1.339-10.774,1.188c2.838,1.564,7.556,3.134,13.757,1.542c10.549-2.711,25.183-13.456,24.137-32.123
		C47.086,16.226,45.35,13.117,43.991,11.362z"/>
	<path fill="none" stroke="#FFDC00" stroke-width="1.5735" stroke-miterlimit="10" d="M7.706,49.132l-0.2,0.539
		c0,0,6.265,6.443,16.814,3.732c10.549-2.709,25.184-13.454,24.138-32.122c-1.06-8.501-5.489-11.624-5.489-11.624l-0.254-4.574
		c0,0-0.249-0.502-0.976-0.443c-0.727,0.059-1.004,0.348,0.001,5.325c0.073,4.636,0.903,13.458-9.249,26.254
		C20.863,48.531,11.084,48.72,7.706,49.132z"/>
</g>
<g>
	
		<path fill="none" stroke="#B08E72" stroke-width="0.7415" stroke-linecap="round" stroke-linejoin="round" stroke-miterlimit="10" d="
		M9.671,31.768c0,0-1.354-4.175-5.072-3.511"/>
	
		<path fill="#20A84A" stroke="#009139" stroke-width="0.7415" stroke-linecap="round" stroke-linejoin="round" stroke-miterlimit="10" d="
		M13.619,22.939c0,0,2.424,6.208-3.858,7.333C6.895,27.095,13.619,22.939,13.619,22.939z"/>
	<path fill="#F0834C" stroke="#EC6740" stroke-width="0.7415" stroke-miterlimit="10" d="M11.866,30.326
		c-1.858,0.435-1.213,1.292-2.17,1.676c-1.027,0.08-0.83-0.975-2.687-0.54c-1.196,0.279-5.785,1.903-4.526,7.288
		c1.259,5.384,6.113,8.271,7.721,7.895c1.562-0.365,1.358-0.961,2.601-1.346c1.285-0.207,1.367,0.418,2.928,0.053
		c1.608-0.376,4.68-5.115,3.421-10.5C17.895,29.468,13.062,30.046,11.866,30.326z"/>
	
		<path fill="#F0834C" stroke="#EC6740" stroke-width="0.7415" stroke-linecap="round" stroke-linejoin="round" stroke-miterlimit="10" d="
		M4.052,35.079c-0.483,3.246,1.349,7.346,4.209,9.032"/>
</g>
</svg>
