<?xml version="1.0" encoding="utf-8"?>
<!-- Generator: Adobe Illustrator 16.0.0, SVG Export Plug-In . SVG Version: 6.00 Build 0)  -->
<!DOCTYPE svg PUBLIC "-//W3C//DTD SVG 1.1//EN" "http://www.w3.org/Graphics/SVG/1.1/DTD/svg11.dtd">
<svg version="1.1" id="Layer_1" xmlns="http://www.w3.org/2000/svg" xmlns:xlink="http://www.w3.org/1999/xlink" x="0px" y="0px"
	 width="50px" height="55px" viewBox="0 0 50 55" enable-background="new 0 0 50 55" xml:space="preserve">
<g>
	
		<path fill="none" stroke="#B08E72" stroke-width="0.6777" stroke-linecap="round" stroke-linejoin="round" stroke-miterlimit="10" d="
		M12.21,38.122c0,0,0.992-3.887-2.207-5.189"/>
	
		<path fill="#20A84A" stroke="#009139" stroke-width="0.6777" stroke-linecap="round" stroke-linejoin="round" stroke-miterlimit="10" d="
		M19.57,33.226c0,0-1.157,5.982-6.561,3.783C12.345,33.155,19.57,33.226,19.57,33.226z"/>
	<path fill="#71B744" stroke="#3D7830" stroke-width="0.6777" stroke-miterlimit="10" d="M14.609,38.078
		c-1.647-0.57-1.568,0.406-2.494,0.236c-0.833-0.439-0.166-1.158-1.813-1.729c-1.061-0.367-5.4-1.352-7.055,3.424
		c-1.655,4.774,0.688,9.376,2.113,9.87c1.386,0.48,1.519-0.08,2.667,0.229c1.094,0.468,0.852,0.99,2.237,1.471
		c1.426,0.494,6.114-1.67,7.769-6.445C19.688,40.358,15.67,38.446,14.609,38.078z"/>
	<path fill="#71B744" stroke="#3D7830" stroke-width="0.6777" stroke-miterlimit="10" d="M6.25,37.938
		c-1.958,2.272-2.542,6.335-1.155,9.034"/>
</g>
<g>
	
		<path fill="#20A84A" stroke="#009139" stroke-width="0.523" stroke-linecap="round" stroke-linejoin="round" stroke-miterlimit="10" d="
		M40.808,37.906c0,0,2.231-2.379,4.286-0.513C43.581,39.615,40.808,37.906,40.808,37.906z"/>
	<path fill="#E94C5B" stroke="#E73635" stroke-width="0.523" stroke-miterlimit="10" d="M44.392,46.766
		c0.632,0.014,0.585-0.466,1.466-0.448c0.882,0.019,2.17,0.735,2.128,2.767s-1.535,3.783-3.547,3.74
		c-2.012-0.041-3.705-1.59-3.659-3.813s1.762-2.695,2.433-2.682S43.635,46.751,44.392,46.766z"/>
	<path fill="#E94C5B" stroke="#E73635" stroke-width="0.523" stroke-miterlimit="10" d="M36.958,44.026
		c0.407,0.214,0.901-0.144,1.663,0.12c0.76,0.264,1.687,1.102,0.914,3.328c-0.771,2.229-2.797,2.895-4.563,2.283
		s-2.639-3.013-1.988-4.888c0.648-1.874,2.336-1.868,2.987-1.642C36.624,43.454,36.689,43.886,36.958,44.026z"/>
	
		<path fill="none" stroke="#009139" stroke-width="0.523" stroke-linecap="round" stroke-linejoin="round" stroke-miterlimit="10" d="
		M36.938,44.436c0,0,2.861-2.967,3.256-5.292c0.147-0.889,0.041-0.962,0.041-0.962s5.379,5.658,4.072,9.342"/>
	
		<path fill="#E94C5B" stroke="#E73635" stroke-width="0.6175" stroke-linecap="round" stroke-linejoin="round" stroke-miterlimit="10" d="
		M43.357,47.006c0.01,0.609,0.44,1.107,1.057,1.125c0.615,0.016,1.089-0.426,1.115-1.066l0.186-0.043"/>
	
		<path fill="#E94C5B" stroke="#E73635" stroke-width="0.523" stroke-linecap="round" stroke-linejoin="round" stroke-miterlimit="10" d="
		M36.229,43.867c-0.203,0.455-0.021,0.99,0.429,1.215s0.987,0.048,1.228-0.389l0.006,0.004"/>
</g>
<g>
	<circle fill="#6E7382" stroke="#324A78" stroke-width="0.7538" stroke-miterlimit="10" cx="42.037" cy="31.342" r="3.266"/>
	
		<path fill="none" stroke="#B08E72" stroke-width="0.7538" stroke-linecap="round" stroke-linejoin="round" stroke-miterlimit="10" d="
		M37.616,18.659c0,0-0.933,3.064,3.595,5.714c-2.566-1.377-1.414-0.8-6.208,3.138"/>
	<circle fill="#6E7382" stroke="#324A78" stroke-width="0.7538" stroke-miterlimit="10" cx="26.183" cy="38.535" r="3.265"/>
	<circle fill="#6E7382" stroke="#324A78" stroke-width="0.7538" stroke-miterlimit="10" cx="26.772" cy="33.122" r="3.265"/>
	<circle fill="#6E7382" stroke="#324A78" stroke-width="0.7538" stroke-miterlimit="10" cx="31.396" cy="37.09" r="3.266"/>
	<circle fill="#6E7382" stroke="#324A78" stroke-width="0.7538" stroke-miterlimit="10" cx="36.503" cy="34.248" r="3.266"/>
	<circle fill="#6E7382" stroke="#324A78" stroke-width="0.7538" stroke-miterlimit="10" cx="32.222" cy="31.098" r="3.266"/>
	<circle fill="#6E7382" stroke="#324A78" stroke-width="0.7538" stroke-miterlimit="10" cx="28.544" cy="27.637" r="3.266"/>
	<circle fill="#6E7382" stroke="#324A78" stroke-width="0.7538" stroke-miterlimit="10" cx="30.196" cy="22.062" r="3.266"/>
	<circle fill="#6E7382" stroke="#324A78" stroke-width="0.7538" stroke-miterlimit="10" cx="38.244" cy="28.551" r="3.266"/>
	<circle fill="#6E7382" stroke="#324A78" stroke-width="0.7538" stroke-miterlimit="10" cx="34.574" cy="25.85" r="3.266"/>
	<circle fill="#324A78" cx="38.091" cy="29.715" r="0.566"/>
	<circle fill="#324A78" cx="29.636" cy="21.985" r="0.566"/>
	<circle fill="#324A78" cx="27.657" cy="28.261" r="0.566"/>
	<circle fill="#324A78" cx="31.58" cy="31.901" r="0.567"/>
	<circle fill="#324A78" cx="35.861" cy="35.052" r="0.566"/>
	<circle fill="#324A78" cx="30.509" cy="37.714" r="0.566"/>
	<circle fill="#324A78" cx="26.219" cy="33.803" r="0.567"/>
	<circle fill="#324A78" cx="25.238" cy="39.493" r="0.566"/>
	<circle fill="#324A78" cx="33.932" cy="26.654" r="0.566"/>
	<circle fill="#324A78" cx="43.003" cy="32.009" r="0.566"/>
</g>
<g>
	
		<path fill="#EC6650" stroke="#EA503B" stroke-width="0.4472" stroke-linecap="round" stroke-linejoin="round" stroke-miterlimit="10" d="
		M24.589,24.045c-0.576-2.444-2.809-2.423-4.016-2.703c-1.207-0.281-3.202-1.285-4.796,0.654c-1.544,1.878,0.207,7.5,2.558,8.383
		c0.043,0.015,0.084,0.028,0.126,0.041c0.044,0.008,0.088,0.014,0.132,0.019C21.093,30.684,25.145,26.412,24.589,24.045z"/>
	
		<path fill="#20A84A" stroke="#009139" stroke-width="0.4472" stroke-linecap="round" stroke-linejoin="round" stroke-miterlimit="10" d="
		M23.733,20.452c-0.675-0.399-1.364-0.518-1.929-0.486c0.199-0.61,0.214-1.561-0.307-2.508c-1.008,0.601-1.336,1.493-1.405,2.117
		c-0.495-0.283-1.172-0.486-1.962-0.425c0.214,1.468,1.293,2.128,1.813,2.296c0.145,0.056,0.342,0.116,0.563,0.167
		c0.215,0.05,0.415,0.084,0.568,0.097C21.6,21.794,22.882,21.691,23.733,20.452z"/>
	<path fill="#FDD7AC" d="M19.92,24.045c0,0,0.927-0.848,0.25-1.014C19.494,22.864,19.92,24.045,19.92,24.045z"/>
	<path fill="#FDD7AC" d="M16.611,23.276c0,0,0.927-0.848,0.25-1.015S16.611,23.276,16.611,23.276z"/>
	<path fill="#FCD5AD" d="M22.982,24.757c0,0,0.928-0.848,0.251-1.015C22.557,23.576,22.982,24.757,22.982,24.757z"/>
	<path fill="#FDD7AC" d="M20.954,26.729c0,0,0.927-0.848,0.25-1.015S20.954,26.729,20.954,26.729z"/>
	<path fill="#FDD7AC" d="M17.81,25.997c0,0,0.926-0.848,0.25-1.015C17.383,24.815,17.81,25.997,17.81,25.997z"/>
	<path fill="#FDD7AC" d="M18.849,29.029c0,0,0.927-0.847,0.25-1.015S18.849,29.029,18.849,29.029z"/>
</g>
<g>
	
		<path fill="#EC6650" stroke="#EA503B" stroke-width="0.3371" stroke-linecap="round" stroke-linejoin="round" stroke-miterlimit="10" d="
		M28.24,46.068c-1.597-1.018-2.792,0.168-3.591,0.651c-0.8,0.482-2.405,0.989-2.246,2.876c0.153,1.827,4.056,3.941,5.791,3.183
		c0.03-0.015,0.061-0.028,0.09-0.044c0.027-0.02,0.055-0.039,0.081-0.06C29.843,51.492,29.785,47.054,28.24,46.068z"/>
	
		<path fill="#20A84A" stroke="#009139" stroke-width="0.3371" stroke-linecap="round" stroke-linejoin="round" stroke-miterlimit="10" d="
		M25.888,44.577c-0.574,0.139-1.009,0.438-1.298,0.752c-0.214-0.434-0.705-0.955-1.485-1.193c-0.229,0.854,0.063,1.51,0.354,1.882
		c-0.416,0.108-0.888,0.354-1.283,0.803c0.888,0.68,1.818,0.47,2.187,0.286c0.107-0.045,0.246-0.116,0.392-0.205
		c0.143-0.086,0.268-0.173,0.357-0.246C25.441,46.424,26.08,45.694,25.888,44.577z"/>
	<path fill="#FDD7AC" d="M25.719,48.523c0,0,0.055-0.946-0.398-0.681C24.867,48.109,25.719,48.523,25.719,48.523z"/>
	<path fill="#FDD7AC" d="M23.526,49.849c0,0,0.054-0.946-0.399-0.681S23.526,49.849,23.526,49.849z"/>
	<path fill="#FCD5AD" d="M27.746,47.297c0,0,0.056-0.945-0.397-0.68C26.895,46.884,27.746,47.297,27.746,47.297z"/>
	<path fill="#FDD7AC" d="M27.688,49.428c0,0,0.055-0.944-0.398-0.679S27.688,49.428,27.688,49.428z"/>
	<path fill="#FDD7AC" d="M25.605,50.688c0,0,0.054-0.946-0.399-0.68C24.753,50.272,25.605,50.688,25.605,50.688z"/>
	<path fill="#FDD7AC" d="M27.761,51.779c0,0,0.056-0.946-0.398-0.681C26.909,51.364,27.761,51.779,27.761,51.779z"/>
</g>
<g>
	
		<path fill="none" stroke="#B08E72" stroke-width="0.5413" stroke-linecap="round" stroke-linejoin="round" stroke-miterlimit="10" d="
		M39.661,8.755c0,0-2.337-2.191-4.48-0.455"/>
	
		<path fill="#20A84A" stroke="#009139" stroke-width="0.5413" stroke-linecap="round" stroke-linejoin="round" stroke-miterlimit="10" d="
		M39.069,1.72c0,0,3.74,3.114,0.121,6.047C36.238,6.748,39.069,1.72,39.069,1.72z"/>
	<path fill="#71B744" stroke="#3D7830" stroke-width="0.5413" stroke-miterlimit="10" d="M40.555,7.06
		c-1.034,0.933-0.32,1.254-0.796,1.836c-0.628,0.414-0.874-0.33-1.908,0.603c-0.665,0.6-3.025,3.257-0.322,6.255
		c2.703,2.996,6.825,3.13,7.72,2.323c0.87-0.785,0.529-1.094,1.188-1.778c0.748-0.584,1.021-0.214,1.89-0.998
		c0.896-0.808,1.187-4.921-1.517-7.918C44.105,4.385,41.22,6.46,40.555,7.06z"/>
	<path fill="#71B744" stroke="#3D7830" stroke-width="0.5413" stroke-miterlimit="10" d="M37.237,12.855
		c0.836,2.244,3.453,4.218,5.876,4.287"/>
</g>
<g>
	
		<path fill="#20A84A" stroke="#009139" stroke-width="0.3775" stroke-linecap="round" stroke-linejoin="round" stroke-miterlimit="10" d="
		M24.32,8.321c0,0,0.4-2.321,2.38-2.011C26.671,8.249,24.32,8.321,24.32,8.321z"/>
	<path fill="#E94C5B" stroke="#E73635" stroke-width="0.3775" stroke-miterlimit="10" d="M29.999,12.239
		c0.387-0.243,0.167-0.514,0.705-0.853c0.539-0.339,1.602-0.418,2.382,0.823c0.782,1.241,0.577,2.89-0.652,3.663
		c-1.229,0.774-2.865,0.513-3.721-0.845c-0.854-1.358-0.008-2.325,0.402-2.583C29.524,12.186,29.536,12.53,29.999,12.239z"/>
	<path fill="#E94C5B" stroke="#E73635" stroke-width="0.3775" stroke-miterlimit="10" d="M24.43,13.539
		c0.331-0.032,0.487-0.444,1.05-0.587c0.563-0.143,1.454-0.006,1.874,1.643c0.418,1.65-0.538,2.855-1.845,3.188
		c-1.307,0.333-2.787-0.768-3.139-2.156c-0.354-1.388,0.667-2.054,1.148-2.176C24.001,13.326,24.212,13.561,24.43,13.539z"/>
	
		<path fill="none" stroke="#009139" stroke-width="0.3775" stroke-linecap="round" stroke-linejoin="round" stroke-miterlimit="10" d="
		M24.58,13.793c0,0,0.547-2.924-0.139-4.483c-0.264-0.595-0.357-0.596-0.357-0.596s5.49,1.275,6.164,4.014"/>
	
		<path fill="#E94C5B" stroke="#E73635" stroke-width="0.4458" stroke-linecap="round" stroke-linejoin="round" stroke-miterlimit="10" d="
		M29.471,12.793c0.248,0.363,0.705,0.493,1.083,0.259c0.378-0.235,0.488-0.688,0.249-1.085l0.096-0.1"/>
	
		<path fill="#E94C5B" stroke="#E73635" stroke-width="0.3775" stroke-linecap="round" stroke-linejoin="round" stroke-miterlimit="10" d="
		M23.927,13.732c0.059,0.355,0.38,0.605,0.741,0.563c0.36-0.044,0.614-0.364,0.585-0.722l0.005,0"/>
</g>
<g>
	<circle fill="#6E7382" stroke="#324A78" stroke-width="0.6383" stroke-miterlimit="10" cx="17.956" cy="11.376" r="2.765"/>
	
		<path fill="none" stroke="#B08E72" stroke-width="0.6383" stroke-linecap="round" stroke-linejoin="round" stroke-miterlimit="10" d="
		M9.782,3.468c0,0,0.462,2.672,4.895,2.952c-2.465-0.064-1.374-0.066-3.5,4.738"/>
	<circle fill="#6E7382" stroke="#324A78" stroke-width="0.6383" stroke-miterlimit="10" cx="8.706" cy="22.854" r="2.765"/>
	<circle fill="#6E7382" stroke="#324A78" stroke-width="0.6383" stroke-miterlimit="10" cx="7.09" cy="18.536" r="2.765"/>
	<circle fill="#6E7382" stroke="#324A78" stroke-width="0.6383" stroke-miterlimit="10" cx="12.098" cy="19.776" r="2.765"/>
	<circle fill="#6E7382" stroke="#324A78" stroke-width="0.6383" stroke-miterlimit="10" cx="14.878" cy="15.682" r="2.765"/>
	<circle fill="#6E7382" stroke="#324A78" stroke-width="0.6383" stroke-miterlimit="10" cx="10.441" cy="14.93" r="2.766"/>
	<circle fill="#6E7382" stroke="#324A78" stroke-width="0.6383" stroke-miterlimit="10" cx="6.341" cy="13.713" r="2.766"/>
	<circle fill="#6E7382" stroke="#324A78" stroke-width="0.6383" stroke-miterlimit="10" cx="5.467" cy="8.869" r="2.765"/>
	<circle fill="#6E7382" stroke="#324A78" stroke-width="0.6383" stroke-miterlimit="10" cx="14.025" cy="10.71" r="2.766"/>
	<circle fill="#6E7382" stroke="#324A78" stroke-width="0.6383" stroke-miterlimit="10" cx="10.22" cy="10.065" r="2.766"/>
	<circle fill="#324A78" cx="14.353" cy="11.649" r="0.479"/>
	<circle fill="#324A78" cx="5.013" cy="9.023" r="0.479"/>
	<circle fill="#324A78" cx="5.908" cy="14.523" r="0.479"/>
	<circle fill="#324A78" cx="10.261" cy="15.782" r="0.48"/>
	<circle fill="#324A78" cx="14.699" cy="16.534" r="0.48"/>
	<circle fill="#324A78" cx="11.665" cy="20.586" r="0.48"/>
	<circle fill="#324A78" cx="6.931" cy="19.262" r="0.48"/>
	<circle fill="#324A78" cx="8.356" cy="23.939" r="0.479"/>
	<circle fill="#324A78" cx="10.041" cy="10.918" r="0.479"/>
	<circle fill="#324A78" cx="18.941" cy="11.513" r="0.48"/>
</g>
</svg>
