<?xml version="1.0" encoding="utf-8"?>
<!-- Generator: Adobe Illustrator 16.0.0, SVG Export Plug-In . SVG Version: 6.00 Build 0)  -->
<!DOCTYPE svg PUBLIC "-//W3C//DTD SVG 1.1//EN" "http://www.w3.org/Graphics/SVG/1.1/DTD/svg11.dtd">
<svg version="1.1" id="Layer_1" xmlns="http://www.w3.org/2000/svg" xmlns:xlink="http://www.w3.org/1999/xlink" x="0px" y="0px"
	 width="120px" height="120px" viewBox="0 0 120 120" enable-background="new 0 0 120 120" xml:space="preserve">
<g>
	<circle fill="#F8AB30" cx="55.422" cy="92.227" r="25.745"/>
	<circle fill="#FFE76F" cx="55.422" cy="92.226" r="23.976"/>
	<circle fill="#F8AB30" cx="55.422" cy="92.229" r="21.419"/>
	<g>
		<defs>
			<circle id="SVGID_1_" cx="55.418" cy="92.174" r="21.55"/>
		</defs>
		<clipPath id="SVGID_2_">
			<use xlink:href="#SVGID_1_"  overflow="visible"/>
		</clipPath>
		
			<rect x="54.711" y="59.276" transform="matrix(-0.9978 0.0658 -0.0658 -0.9978 117.2083 180.0985)" clip-path="url(#SVGID_2_)" fill="#FFE76F" width="1.855" height="65.408"/>
		
			<rect x="54.494" y="59.522" transform="matrix(-0.0663 -0.9978 0.9978 -0.0663 -32.9265 153.6412)" clip-path="url(#SVGID_2_)" fill="#FFE76F" width="1.856" height="65.407"/>
		
			<rect x="54.246" y="59.615" transform="matrix(-0.7523 -0.6588 0.6588 -0.7523 36.3501 198.1318)" clip-path="url(#SVGID_2_)" fill="#FFE76F" width="2.351" height="65.234"/>
		
			<rect x="54.243" y="59.556" transform="matrix(0.6594 -0.7518 0.7518 0.6594 -50.421 73.0629)" clip-path="url(#SVGID_2_)" fill="#FFE76F" width="2.35" height="65.234"/>
	</g>
	<g>
		<path fill="#DD6E46" d="M52.502,85.66c0,0,0.588-3.732-1.316-2.855C49.283,83.683,52.502,85.66,52.502,85.66z"/>
		<path fill="#DD6E46" d="M58.87,99.14c0,0-0.792,3.695,1.156,2.923C61.975,101.292,58.87,99.14,58.87,99.14z"/>
	</g>
	<g>
		<path fill="#DD6E46" d="M52.905,99.429c0,0-3.054,2.224-1.088,2.95C53.783,103.103,52.905,99.429,52.905,99.429z"/>
		<path fill="#DD6E46" d="M57.935,85.393c0,0,3.172-2.052,1.249-2.883C57.26,81.678,57.935,85.393,57.935,85.393z"/>
	</g>
	<g>
		<path fill="#DD6E46" d="M62.418,89.294c0,0,3.731,0.588,2.854-1.315C64.396,86.076,62.418,89.294,62.418,89.294z"/>
		<path fill="#DD6E46" d="M48.938,95.661c0,0-3.695-0.791-2.924,1.157C46.785,98.767,48.938,95.661,48.938,95.661z"/>
	</g>
	<g>
		<path fill="#DD6E46" d="M48.652,89.602c0,0-2.223-3.053-2.95-1.087C44.978,90.481,48.652,89.602,48.652,89.602z"/>
		<path fill="#DD6E46" d="M62.687,94.632c0,0,2.053,3.174,2.885,1.249C66.403,93.957,62.687,94.632,62.687,94.632z"/>
	</g>
</g>
<g>
	
		<path fill="#87BD24" stroke="#71902C" stroke-width="2.0029" stroke-linecap="round" stroke-linejoin="round" stroke-miterlimit="10" d="
		M61.885,38.102c0,0,13.379,0.788,18.901,7.49c7.021-3.357,13.575-6.868,13.575-6.868s-4.358-6.319,4.481-17.185
		c-1.867-2.543-9.559,1.688-10.302,3.951c-1.177-3.472-3.645-4.186-1.527-16.229c-4.946,2.43-6.325,5.307-7.809,10.562
		c-3.493-3.028-7.05-7.477-8.087-11.821c0,0-4.822,6.266,1.568,16.791c-4.177-0.212-7.843-0.611-13.13,3.298
		c7.618-1.746,13.394,5.794,13.394,5.794S67.128,33.051,61.885,38.102z"/>
	<path fill="#FFCB00" stroke="#FFDC00" stroke-width="1.4878" stroke-miterlimit="10" d="M114.755,51.957
		c-8.343-16.497-21.529-17.542-29.662-13.844c-0.003-0.005-0.009-0.016-0.009-0.016s0.113-0.05,0.006,0.009
		c-0.112,0.055-0.006-0.007-0.006-0.007s0.006,0.009,0.009,0.016c-8.464,4.695-14.862,15.648-6.517,32.146
		c8.298,16.404,20.839,16.175,28.961,12.454c0.002,0.005,0.006,0.011,0.008,0.018c0,0-0.113,0.05-0.004-0.008
		c0.112-0.055,0.004,0.008,0.004,0.008c-0.002-0.008-0.006-0.013-0.009-0.019C114.02,79.047,123.054,68.363,114.755,51.957z"/>
	<g>
		<defs>
			<path id="SVGID_3_" d="M114.755,51.957C106.412,35.46,92.561,34.75,85.093,38.113c-0.003-0.005-0.009-0.016-0.009-0.016
				s-0.218,0.118-0.326,0.175c-0.114,0.055-0.338,0.16-0.338,0.16s0.006,0.011,0.009,0.017c-7.8,4.36-14.862,15.648-6.518,32.144
				c8.299,16.406,22.17,15.509,28.96,12.454c0.005,0.008,0.008,0.013,0.009,0.019c0,0,0.219-0.117,0.329-0.175
				c0.113-0.055,0.336-0.159,0.336-0.159c-0.002-0.008-0.006-0.013-0.009-0.019C114.019,79.047,123.055,68.363,114.755,51.957z"/>
		</defs>
		<clipPath id="SVGID_4_">
			<use xlink:href="#SVGID_3_"  overflow="visible"/>
		</clipPath>
		
			<rect x="79.785" y="31.632" transform="matrix(-0.9501 -0.3119 0.3119 -0.9501 139.3157 136.3744)" clip-path="url(#SVGID_4_)" fill="#FFDF00" width="1.556" height="50.829"/>
		
			<rect x="92.081" y="31.806" transform="matrix(-0.9498 -0.3128 0.3128 -0.9498 163.1545 140.6185)" clip-path="url(#SVGID_4_)" fill="#FFDF00" width="1.555" height="50.83"/>
		
			<rect x="102.31" y="37.094" transform="matrix(-0.9502 -0.3117 0.3117 -0.9502 181.5571 154.0369)" clip-path="url(#SVGID_4_)" fill="#FFDF00" width="1.557" height="50.83"/>
		
			<rect x="111.628" y="45.168" transform="matrix(-0.9501 -0.3121 0.3121 -0.9501 197.1699 172.7204)" clip-path="url(#SVGID_4_)" fill="#FFDF00" width="1.555" height="50.83"/>
		
			<rect x="99.432" y="16.464" transform="matrix(-0.3114 0.9503 -0.9503 -0.3114 171.2122 -40.3067)" clip-path="url(#SVGID_4_)" fill="#FFDF00" width="1.555" height="50.828"/>
		
			<rect x="96.235" y="27.381" transform="matrix(-0.3111 0.9504 -0.9504 -0.3111 177.3722 -22.9765)" clip-path="url(#SVGID_4_)" fill="#FFDF00" width="1.557" height="50.828"/>
		
			<rect x="97.917" y="39.899" transform="matrix(-0.3119 0.9501 -0.9501 -0.3119 191.5324 -8.0876)" clip-path="url(#SVGID_4_)" fill="#FFDF00" width="1.556" height="50.829"/>
		
			<rect x="94.955" y="51.277" transform="matrix(-0.3108 0.9505 -0.9505 -0.3108 198.3766 9.5315)" clip-path="url(#SVGID_4_)" fill="#FFDF00" width="1.556" height="50.828"/>
	</g>
</g>
<g>
	
		<path fill="#20A84A" stroke="#009139" stroke-width="2.0143" stroke-linecap="round" stroke-linejoin="round" stroke-miterlimit="10" d="
		M40.854,6.916c0,0-9.766,13.492,6.06,22.021C55.847,21.794,47.565,11.134,40.854,6.916z"/>
	
		<path fill="none" stroke="#B08E72" stroke-width="2.0143" stroke-linecap="round" stroke-linejoin="round" stroke-miterlimit="10" d="
		M45.342,34.659c0,0-1.834-6.973,10.675-6.516"/>
	<path fill="#EE7542" stroke="#E95314" stroke-width="2.0143" stroke-miterlimit="10" d="M13.257,31.083
		c-9.79,9.099-10.618,23.409-2.545,32.095c8.075,8.685,22.971,10.144,32.445,1.336c9.476-8.807,8.506-22.992,0.763-31.321
		C36.176,24.862,20.837,24.035,13.257,31.083z"/>
	<circle fill="#E95314" cx="42.103" cy="48.761" r="1.92"/>
	<circle fill="#E95314" cx="39.111" cy="57.657" r="1.919"/>
	<circle fill="#E95314" cx="30.533" cy="56.563" r="2.197"/>
	<circle fill="#E95314" cx="34.055" cy="49.503" r="1.067"/>
</g>
</svg>
