<?xml version="1.0" encoding="utf-8"?>
<!-- Generator: Adobe Illustrator 16.0.0, SVG Export Plug-In . SVG Version: 6.00 Build 0)  -->
<!DOCTYPE svg PUBLIC "-//W3C//DTD SVG 1.1//EN" "http://www.w3.org/Graphics/SVG/1.1/DTD/svg11.dtd">
<svg version="1.1" id="Layer_1" xmlns="http://www.w3.org/2000/svg" xmlns:xlink="http://www.w3.org/1999/xlink" x="0px" y="0px"
	 width="120px" height="120px" viewBox="0 0 120 120" enable-background="new 0 0 120 120" xml:space="preserve">
<g>
	<circle fill="#B7CF3F" cx="23.762" cy="38.802" r="12.126"/>
	<circle fill="#E6E99E" cx="23.762" cy="38.802" r="11.292"/>
	<circle fill="#B7CF3F" cx="23.762" cy="38.803" r="10.088"/>
	<g>
		<defs>
			<circle id="SVGID_1_" cx="23.76" cy="38.777" r="10.149"/>
		</defs>
		<clipPath id="SVGID_2_">
			<use xlink:href="#SVGID_1_"  overflow="visible"/>
		</clipPath>
		
			<rect x="23.427" y="23.283" transform="matrix(-0.9978 0.0659 -0.0659 -0.9978 50.226 75.7142)" clip-path="url(#SVGID_2_)" fill="#E6E99E" width="0.874" height="30.806"/>
		
			<rect x="23.325" y="23.398" transform="matrix(-0.0654 -0.9979 0.9979 -0.0654 -13.402 65.0507)" clip-path="url(#SVGID_2_)" fill="#E6E99E" width="0.873" height="30.806"/>
		
			<rect x="23.209" y="23.442" transform="matrix(-0.7521 -0.659 0.659 -0.7521 16.0607 83.6494)" clip-path="url(#SVGID_2_)" fill="#E6E99E" width="1.107" height="30.724"/>
		
			<rect x="23.207" y="23.414" transform="matrix(0.6588 -0.7523 0.7523 0.6588 -21.0649 31.105)" clip-path="url(#SVGID_2_)" fill="#E6E99E" width="1.107" height="30.724"/>
	</g>
</g>
<g>
	<g>
		<path fill="#696A21" d="M93.185,59.635c0.823-5.863,1.13-11.393,0.432-17.273c-0.238-2.003-0.504-4.049-1.406-5.854
			c-0.902-1.804-2.992-3.554-5-3.75c-1.391-1.461-4.056-2.03-6.033-1.631c-1.978,0.4-3.753,1.451-5.479,2.496
			c-5.064,3.068-9.233,6.715-13.346,10.975c-4.113,4.261-7.25,9.717-7.677,15.624c-0.551,7.646,3.382,14.961,10.139,18.451
			c6.911,3.174,15.096,1.771,20.781-3.369C89.988,71.33,92.356,65.498,93.185,59.635z"/>
		<path fill="#363519" d="M64.711,78.896c-6.815-3.521-10.848-10.857-10.282-18.691c0.39-5.406,3.14-11.011,7.745-15.779
			c4.663-4.83,8.794-8.227,13.396-11.015c1.631-0.988,3.477-2.107,5.559-2.528c1.86-0.375,4.645,0.074,6.198,1.637
			c2.188,0.262,4.256,2.179,5.104,3.876c0.95,1.899,1.207,4.043,1.432,5.936c0.635,5.342,0.501,10.69-0.433,17.337l0,0
			c-0.925,6.564-3.647,12.182-7.668,15.816C79.935,80.758,71.672,82.094,64.711,78.896z M85.663,31.951
			c-1.402-0.684-3.153-0.842-4.437-0.583c-1.998,0.403-3.805,1.499-5.4,2.465c-4.563,2.766-8.665,6.138-13.297,10.936
			c-4.524,4.687-7.225,10.18-7.606,15.469c-0.551,7.639,3.377,14.787,10.005,18.215c6.77,3.109,14.822,1.803,20.501-3.334
			c3.936-3.557,6.602-9.068,7.51-15.518c0.929-6.605,1.063-11.912,0.431-17.21c-0.22-1.853-0.47-3.951-1.381-5.773
			c-0.802-1.603-2.758-3.415-4.803-3.616l-0.092-0.008l-0.062-0.066C86.649,32.527,86.18,32.203,85.663,31.951z"/>
	</g>
	<path fill="#9CB92B" d="M65.356,77.561c-6.261-3.25-9.968-10.018-9.447-17.25c0.365-5.059,2.968-10.333,7.333-14.853
		c4.569-4.734,8.61-8.058,13.097-10.777c1.527-0.924,3.256-1.971,5.083-2.341c1.188-0.24,2.684-0.041,3.812,0.509
		c0.441,0.215,0.805,0.471,1.08,0.762l0.318,0.333l0.457,0.045c0.399,0.039,0.826,0.167,1.267,0.383
		c1.126,0.549,2.205,1.605,2.748,2.689c0.832,1.667,1.071,3.675,1.283,5.446c0.619,5.21,0.487,10.439-0.43,16.956
		c-0.875,6.223-3.43,11.521-7.191,14.922C79.388,79.25,71.771,80.492,65.356,77.561z"/>
	<path fill="#FFF1A5" d="M66.441,75.334c-5.349-2.803-8.512-8.623-8.063-14.846c0.324-4.481,2.684-9.209,6.644-13.312
		c4.417-4.575,8.303-7.776,12.6-10.38c1.354-0.819,2.887-1.747,4.291-2.032c0.658-0.133,1.599-0.002,2.236,0.308
		c0.244,0.12,0.349,0.217,0.374,0.245l0.951,0.999l1.374,0.134c0.037,0.003,0.177,0.025,0.422,0.146
		c0.638,0.311,1.319,0.972,1.619,1.572c0.642,1.281,0.854,3.062,1.04,4.632c0.595,4.989,0.463,10.022-0.422,16.318
		c-0.795,5.648-3.067,10.418-6.401,13.432C78.479,76.734,71.945,77.824,66.441,75.334z"/>
	<g>
		<path fill="#C4A138" d="M68.904,70.285c-5.096-2.484-7.219-8.65-4.732-13.749c1.205-2.472,3.431-4.599,6.103-5.834
			c2.904-1.344,5.853-1.428,8.296-0.234c2.446,1.193,4.195,3.565,4.924,6.684c0.673,2.866,0.364,5.929-0.841,8.399
			C80.167,70.648,74.001,72.771,68.904,70.285z"/>
		<path fill="#823311" d="M81.541,65.008c-2.19,4.492-7.604,6.355-12.094,4.166s-6.354-7.604-4.164-12.095
			c2.19-4.489,8.256-7.689,12.745-5.5C82.519,53.77,83.732,60.52,81.541,65.008z"/>
	</g>
</g>
<g>
	<circle fill="#73B72B" stroke="#628037" stroke-width="1.5071" stroke-miterlimit="10" cx="56.052" cy="20.71" r="17.833"/>
	<g>
		<path fill="#FCD5AD" d="M55.537,15.771c0.283-0.96,0.746-0.96,1.029,0c0.283,0.96,1.164,1.246,1.957,0.636
			c0.793-0.61,1.168-0.338,0.832,0.605c-0.335,0.943,0.209,1.692,1.21,1.664c1.001-0.027,1.144,0.413,0.318,0.979
			s-0.826,1.492,0,2.058c0.826,0.565,0.683,1.006-0.318,0.979s-1.545,0.722-1.21,1.665c0.336,0.943-0.039,1.215-0.832,0.604
			c-0.793-0.611-1.674-0.325-1.957,0.636c-0.283,0.96-0.746,0.96-1.029,0c-0.283-0.96-1.163-1.247-1.957-0.636
			s-1.168,0.339-0.833-0.604c0.336-0.943-0.208-1.692-1.209-1.665c-1.001,0.027-1.144-0.413-0.318-0.979
			c0.826-0.566,0.826-1.492,0-2.058s-0.683-1.006,0.318-0.979c1,0.028,1.545-0.721,1.209-1.664
			c-0.335-0.943,0.039-1.216,0.833-0.605S55.254,16.731,55.537,15.771z"/>
	</g>
	<g>
		<path fill="#628037" d="M56.015,13.216c0,0,2.272-3.053,0.164-3.163C54.07,9.944,56.015,13.216,56.015,13.216z"/>
		<path fill="#628037" d="M56.179,28.514c0,0-2.272,3.053-0.164,3.163C58.123,31.787,56.179,28.514,56.179,28.514z"/>
	</g>
	<g>
		<path fill="#628037" d="M50.489,15.359c0,0-0.552-3.766-2.12-2.352C46.801,14.42,50.489,15.359,50.489,15.359z"/>
		<path fill="#628037" d="M61.423,26.062c0,0,0.553,3.766,2.12,2.352C65.112,27,61.423,26.062,61.423,26.062z"/>
	</g>
	<g>
		<path fill="#628037" d="M61.308,15.243c0,0,3.765-0.552,2.352-2.12C62.246,11.555,61.308,15.243,61.308,15.243z"/>
		<path fill="#628037" d="M50.605,26.178c0,0-3.766,0.552-2.353,2.12C49.666,29.866,50.605,26.178,50.605,26.178z"/>
	</g>
	<g>
		<path fill="#628037" d="M63.746,20.628c0,0,3.053,2.272,3.163,0.165C67.018,18.684,63.746,20.628,63.746,20.628z"/>
		<path fill="#628037" d="M48.447,20.793c0,0-3.053-2.273-3.163-0.165S48.447,20.793,48.447,20.793z"/>
	</g>
	<g>
		<path fill="#628037" d="M51.993,9.654c0,0,0.608-2.019-0.511-1.678C50.363,8.316,51.993,9.654,51.993,9.654z"/>
		<path fill="#628037" d="M60.2,32.067c0,0-0.608,2.019,0.511,1.679C61.83,33.405,60.2,32.067,60.2,32.067z"/>
	</g>
	<g>
		<path fill="#628037" d="M45.311,25.939c0,0-2.071-0.393-1.615,0.685C44.152,27.7,45.311,25.939,45.311,25.939z"/>
		<path fill="#628037" d="M66.733,15.415c0,0,2.071,0.392,1.614-0.686C67.893,13.652,66.733,15.415,66.733,15.415z"/>
	</g>
	<g>
		<path fill="#628037" d="M61.119,10.035c0,0,1.857-0.998,0.825-1.547C60.913,7.937,61.119,10.035,61.119,10.035z"/>
		<path fill="#628037" d="M51.074,31.686c0,0-1.857,0.997-0.826,1.547C51.28,33.784,51.074,31.686,51.074,31.686z"/>
	</g>
	<g>
		<path fill="#628037" d="M67.106,25.282c0,0,1.067,1.818,1.578,0.767C69.196,24.996,67.106,25.282,67.106,25.282z"/>
		<path fill="#628037" d="M45.087,16.071c0,0-1.067-1.818-1.579-0.765C42.998,16.357,45.087,16.071,45.087,16.071z"/>
	</g>
</g>
<g>
	<path fill="#FFCB00" d="M45.401,103.885l-0.329,0.921c0,0,10.808,10.825,28.7,5.975c17.893-4.851,42.554-23.469,40.352-55.215
		c-1.994-14.444-9.604-19.658-9.604-19.658l-0.536-7.779c0,0-0.436-0.849-1.67-0.732c-1.235,0.116-1.701,0.615,0.122,9.064
		c0.229,7.888,1.842,22.882-15.145,44.889C67.778,102.566,51.141,103.106,45.401,103.885z"/>
	<path fill="#FDC724" d="M106.298,38.785c3.405,15.04-0.781,29.194-6.082,39.657c-5.3,10.467-21.467,23.973-32.876,27.54
		c-7.675,2.399-14.597,2.474-18.31,2.266c4.865,2.598,12.931,5.163,23.447,2.312c17.892-4.851,42.554-23.469,40.352-55.214
		C111.676,46.992,108.649,41.742,106.298,38.785z"/>
	<path fill="none" stroke="#FFDC00" stroke-width="2.6781" stroke-miterlimit="10" d="M45.401,103.885l-0.329,0.921
		c0,0,10.808,10.825,28.7,5.975c17.893-4.851,42.554-23.469,40.352-55.215c-1.994-14.444-9.604-19.658-9.604-19.658l-0.536-7.779
		c0,0-0.436-0.849-1.67-0.732c-1.235,0.116-1.701,0.615,0.122,9.064c0.229,7.888,1.842,22.882-15.145,44.889
		C67.778,102.566,51.141,103.106,45.401,103.885z"/>
</g>
<g>
	
		<path fill="none" stroke="#B08E72" stroke-width="1.7105" stroke-linecap="round" stroke-linejoin="round" stroke-miterlimit="10" d="
		M32.173,65.51c0,0-1.987-9.928-10.687-9.399"/>
	
		<path fill="#20A84A" stroke="#009139" stroke-width="1.7105" stroke-linecap="round" stroke-linejoin="round" stroke-miterlimit="10" d="
		M43.574,46.333c0,0,3.899,14.875-10.795,15.775C27.059,54.062,43.574,46.333,43.574,46.333z"/>
	<path fill="#71B744" stroke="#3D7830" stroke-width="1.7105" stroke-miterlimit="10" d="M37.584,62.792
		c-4.373,0.498-3.124,2.638-5.418,3.26c-2.375-0.088-1.641-2.454-6.013-1.955c-2.816,0.323-13.765,2.821-12.317,15.494
		c1.448,12.672,11.802,20.583,15.586,20.151c3.676-0.419,3.369-1.84,6.319-2.388c2.999-0.132,3.02,1.322,6.696,0.902
		c3.785-0.434,12.088-10.475,10.641-23.147S40.401,62.469,37.584,62.792z"/>
	<path fill="#71B744" stroke="#3D7830" stroke-width="1.7105" stroke-miterlimit="10" d="M18.412,71.6
		c-1.973,7.312,1.131,17.193,7.235,21.82"/>
</g>
</svg>
