<?xml version="1.0" encoding="utf-8"?>
<!-- Generator: Adobe Illustrator 16.0.0, SVG Export Plug-In . SVG Version: 6.00 Build 0)  -->
<!DOCTYPE svg PUBLIC "-//W3C//DTD SVG 1.1//EN" "http://www.w3.org/Graphics/SVG/1.1/DTD/svg11.dtd">
<svg version="1.1" id="Layer_1" xmlns="http://www.w3.org/2000/svg" xmlns:xlink="http://www.w3.org/1999/xlink" x="0px" y="0px"
	 width="120px" height="120px" viewBox="0 0 120 120" enable-background="new 0 0 120 120" xml:space="preserve">
<g>
	
		<path fill="none" stroke="#B08E72" stroke-width="1.6505" stroke-linecap="round" stroke-linejoin="round" stroke-miterlimit="10" d="
		M47.597,82.469c0,0-3.864-8.974-11.97-6.732"/>
	
		<path fill="#20A84A" stroke="#009139" stroke-width="1.6505" stroke-linecap="round" stroke-linejoin="round" stroke-miterlimit="10" d="
		M54.517,62.085c0,0,6.659,13.261-7.031,17.052C40.476,72.688,54.517,62.085,54.517,62.085z"/>
	<path fill="#71B744" stroke="#3D7830" stroke-width="1.6505" stroke-miterlimit="10" d="M52.16,78.819
		c-4.028,1.347-2.421,3.115-4.461,4.163c-2.26,0.391-2.041-1.988-6.067-0.642c-2.595,0.867-12.428,5.419-8.524,17.091
		c3.904,11.672,15.262,17.066,18.747,15.9c3.386-1.133,2.812-2.412,5.487-3.521c2.805-0.725,3.115,0.644,6.501-0.489
		c3.485-1.165,9.312-12.308,5.408-23.98C65.347,75.671,54.753,77.951,52.16,78.819z"/>
	<path fill="#71B744" stroke="#3D7830" stroke-width="1.6505" stroke-miterlimit="10" d="M35.827,90.973
		c-0.399,7.295,4.51,16.002,11.199,19.146"/>
</g>
<g>
	
		<path fill="#20A84A" stroke="#009139" stroke-width="1.2549" stroke-linecap="round" stroke-linejoin="round" stroke-miterlimit="10" d="
		M47.679,8.657c0,0,1.706-7.639,8.227-6.293C55.495,8.798,47.679,8.657,47.679,8.657z"/>
	<path fill="#E94C5B" stroke="#E73635" stroke-width="1.2549" stroke-miterlimit="10" d="M65.901,22.582
		c1.322-0.746,0.638-1.679,2.48-2.718c1.843-1.039,5.381-1.132,7.773,3.115c2.395,4.247,1.449,9.689-2.758,12.06
		c-4.206,2.371-9.597,1.238-12.216-3.409c-2.62-4.647,0.349-7.719,1.75-8.509C64.334,22.33,64.319,23.474,65.901,22.582z"/>
	<path fill="#E94C5B" stroke="#E73635" stroke-width="1.2549" stroke-miterlimit="10" d="M47.201,25.998
		c1.102-0.057,1.687-1.398,3.579-1.783c1.894-0.384,4.832,0.216,5.956,5.759c1.126,5.544-2.245,9.396-6.639,10.288
		c-4.394,0.892-9.127-3.003-10.074-7.668c-0.947-4.665,2.544-6.711,4.167-7.041C45.813,25.224,46.474,26.036,47.201,25.998z"/>
	
		<path fill="none" stroke="#009139" stroke-width="1.2549" stroke-linecap="round" stroke-linejoin="round" stroke-miterlimit="10" d="
		M47.659,26.866c0,0,2.286-9.62,0.261-14.904c-0.779-2.017-1.087-2.039-1.087-2.039s18.019,5.119,19.817,14.325"/>
	
		<path fill="#E94C5B" stroke="#E73635" stroke-width="1.2549" stroke-linecap="round" stroke-linejoin="round" stroke-miterlimit="10" d="
		M63.931,24.531c0.764,1.248,2.361,1.691,3.653,0.974c1.292-0.716,1.715-2.389,1.102-3.624l0.008-0.005"/>
	<path fill="#E94C5B" stroke="#E73635" stroke-linecap="round" stroke-linejoin="round" stroke-miterlimit="10" d="M45.525,26.688
		c0.135,1.188,1.151,2.135,2.355,2.049s2.084-1.237,2.051-2.237H50"/>
</g>
<g>
	<circle fill="#6E7382" stroke="#324A78" stroke-width="1.8897" stroke-miterlimit="10" cx="109.859" cy="53.022" r="8.186"/>
	
		<path fill="none" stroke="#B08E72" stroke-width="1.8897" stroke-linecap="round" stroke-linejoin="round" stroke-miterlimit="10" d="
		M82.092,33.984c0,0,2.667,7.572,15.746,6.196c-7.227,1.032-4.044,0.486-7.873,15.559"/>
	<circle fill="#6E7382" stroke="#324A78" stroke-width="1.8897" stroke-miterlimit="10" cx="88.537" cy="91.099" r="8.186"/>
	<circle fill="#6E7382" stroke="#324A78" stroke-width="1.8897" stroke-miterlimit="10" cx="81.683" cy="79.296" r="8.186"/>
	<circle fill="#6E7382" stroke="#324A78" stroke-width="1.8897" stroke-miterlimit="10" cx="96.914" cy="80.438" r="8.187"/>
	<circle fill="#6E7382" stroke="#324A78" stroke-width="1.8897" stroke-miterlimit="10" cx="103.005" cy="67.11" r="8.186"/>
	<circle fill="#6E7382" stroke="#324A78" stroke-width="1.8897" stroke-miterlimit="10" cx="89.68" cy="67.11" r="8.187"/>
	<circle fill="#6E7382" stroke="#324A78" stroke-width="1.8897" stroke-miterlimit="10" cx="77.114" cy="65.588" r="8.187"/>
	<circle fill="#6E7382" stroke="#324A78" stroke-width="1.8897" stroke-miterlimit="10" cx="72.165" cy="51.88" r="8.187"/>
	<circle fill="#6E7382" stroke="#324A78" stroke-width="1.8897" stroke-miterlimit="10" cx="98.056" cy="53.022" r="8.187"/>
	<circle fill="#6E7382" stroke="#324A78" stroke-width="1.8897" stroke-miterlimit="10" cx="86.633" cy="53.022" r="8.186"/>
	<circle fill="#324A78" cx="99.476" cy="55.601" r="1.42"/>
	<circle fill="#324A78" cx="70.919" cy="52.554" r="1.419"/>
	<circle fill="#324A78" cx="76.25" cy="68.166" r="1.42"/>
	<circle fill="#324A78" cx="89.576" cy="69.688" r="1.42"/>
	<circle fill="#324A78" cx="102.903" cy="69.688" r="1.419"/>
	<circle fill="#324A78" cx="96.049" cy="83.016" r="1.42"/>
	<circle fill="#324A78" cx="81.58" cy="81.492" r="1.42"/>
	<circle fill="#324A78" cx="88.053" cy="94.438" r="1.42"/>
	<circle fill="#324A78" cx="86.53" cy="55.601" r="1.42"/>
	<circle fill="#324A78" cx="112.802" cy="52.935" r="1.42"/>
</g>
<g>
	
		<path fill="#EC6650" stroke="#EA503B" stroke-width="1.5891" stroke-linecap="round" stroke-linejoin="round" stroke-miterlimit="10" d="
		M38.175,57.896c-1.66-8.766-9.59-9.041-13.833-10.223C20.1,46.483,13.176,42.61,7.213,49.246
		C1.438,55.673,6.781,75.9,14.988,79.403c0.146,0.063,0.293,0.121,0.441,0.172c0.153,0.033,0.31,0.061,0.467,0.083
		C24.732,80.914,39.783,66.384,38.175,57.896z"/>
	
		<path fill="#20A84A" stroke="#009139" stroke-width="1.5891" stroke-linecap="round" stroke-linejoin="round" stroke-miterlimit="10" d="
		M35.7,45.004c-2.333-1.521-4.765-2.049-6.775-2.025c0.802-2.139,1.003-5.506-0.699-8.955c-3.673,1.977-4.978,5.095-5.318,7.295
		c-1.711-1.08-4.083-1.908-6.898-1.815c0.532,5.244,4.259,7.757,6.077,8.435c0.505,0.221,1.195,0.463,1.97,0.679
		c0.757,0.211,1.458,0.36,2,0.435C27.916,49.435,32.483,49.272,35.7,45.004z"/>
	<path fill="#FDD7AC" d="M21.604,57.167c0,0,3.423-2.866,1.047-3.564C20.276,52.905,21.604,57.167,21.604,57.167z"/>
	<path fill="#FDD7AC" d="M9.974,53.919c0,0,3.424-2.866,1.047-3.564C8.646,49.657,9.974,53.919,9.974,53.919z"/>
	<path fill="#FCD5AD" d="M32.362,60.173c0,0,3.424-2.866,1.047-3.564C31.034,55.91,32.362,60.173,32.362,60.173z"/>
	<path fill="#FDD7AC" d="M24.854,66.852c0,0,3.424-2.865,1.049-3.564C23.526,62.59,24.854,66.852,24.854,66.852z"/>
	<path fill="#FDD7AC" d="M13.806,63.766c0,0,3.424-2.866,1.048-3.565C12.477,59.503,13.806,63.766,13.806,63.766z"/>
	<path fill="#FDD7AC" d="M17.022,74.693c0,0,3.424-2.866,1.047-3.563C15.693,70.431,17.022,74.693,17.022,74.693z"/>
</g>
</svg>
