<?xml version="1.0" encoding="utf-8"?>
<!-- Generator: Adobe Illustrator 16.0.0, SVG Export Plug-In . SVG Version: 6.00 Build 0)  -->
<!DOCTYPE svg PUBLIC "-//W3C//DTD SVG 1.1//EN" "http://www.w3.org/Graphics/SVG/1.1/DTD/svg11.dtd">
<svg version="1.1" id="Layer_1" xmlns="http://www.w3.org/2000/svg" xmlns:xlink="http://www.w3.org/1999/xlink" x="0px" y="0px"
	 width="120px" height="120px" viewBox="0 0 120 120" enable-background="new 0 0 120 120" xml:space="preserve">
<g>
	<circle fill="#F8AB30" cx="54.422" cy="91.227" r="25.745"/>
	<circle fill="#FFE76F" cx="54.422" cy="91.226" r="23.976"/>
	<circle fill="#F8AB30" cx="54.422" cy="91.229" r="21.419"/>
	<g>
		<defs>
			<circle id="SVGID_1_" cx="54.418" cy="91.174" r="21.55"/>
		</defs>
		<clipPath id="SVGID_2_">
			<use xlink:href="#SVGID_1_"  overflow="visible"/>
		</clipPath>
		
			<rect x="53.71" y="58.276" transform="matrix(-0.9978 0.0658 -0.0658 -0.9978 115.1431 178.1675)" clip-path="url(#SVGID_2_)" fill="#FFE76F" width="1.856" height="65.408"/>
		
			<rect x="53.494" y="58.522" transform="matrix(-0.0663 -0.9978 0.9978 -0.0663 -32.9953 151.5768)" clip-path="url(#SVGID_2_)" fill="#FFE76F" width="1.856" height="65.408"/>
		
			<rect x="53.246" y="58.615" transform="matrix(-0.7523 -0.6588 0.6588 -0.7523 35.2566 195.7206)" clip-path="url(#SVGID_2_)" fill="#FFE76F" width="2.351" height="65.234"/>
		
			<rect x="53.243" y="58.556" transform="matrix(0.6595 -0.7517 0.7517 0.6595 -50.0067 71.9542)" clip-path="url(#SVGID_2_)" fill="#FFE76F" width="2.35" height="65.234"/>
	</g>
	<g>
		<path fill="#DD6E46" d="M51.502,84.66c0,0,0.588-3.732-1.316-2.855C48.283,82.683,51.502,84.66,51.502,84.66z"/>
		<path fill="#DD6E46" d="M57.87,98.14c0,0-0.792,3.695,1.155,2.923C60.975,100.292,57.87,98.14,57.87,98.14z"/>
	</g>
	<g>
		<path fill="#DD6E46" d="M51.904,98.429c0,0-3.054,2.224-1.088,2.95C52.783,102.103,51.904,98.429,51.904,98.429z"/>
		<path fill="#DD6E46" d="M56.935,84.393c0,0,3.172-2.052,1.249-2.883C56.26,80.678,56.935,84.393,56.935,84.393z"/>
	</g>
	<g>
		<path fill="#DD6E46" d="M61.418,88.294c0,0,3.731,0.588,2.854-1.315C63.396,85.076,61.418,88.294,61.418,88.294z"/>
		<path fill="#DD6E46" d="M47.938,94.661c0,0-3.695-0.791-2.924,1.157C45.785,97.767,47.938,94.661,47.938,94.661z"/>
	</g>
	<g>
		<path fill="#DD6E46" d="M47.652,88.602c0,0-2.223-3.053-2.949-1.087C43.979,89.481,47.652,88.602,47.652,88.602z"/>
		<path fill="#DD6E46" d="M61.687,93.632c0,0,2.053,3.174,2.885,1.249C65.403,92.957,61.687,93.632,61.687,93.632z"/>
	</g>
</g>
<path fill="#87BD24" stroke="#71902C" stroke-width="2.0029" stroke-linecap="round" stroke-linejoin="round" stroke-miterlimit="10" d="
	M60.885,37.102c0,0,13.379,0.788,18.901,7.49c7.021-3.357,13.575-6.868,13.575-6.868s-4.358-6.319,4.481-17.185
	c-1.867-2.543-9.559,1.688-10.302,3.951c-1.177-3.472-3.645-4.186-1.527-16.229c-4.946,2.43-6.325,5.307-7.809,10.562
	c-3.493-3.028-7.05-7.477-8.087-11.821c0,0-4.822,6.266,1.568,16.791c-4.177-0.212-7.843-0.611-13.13,3.298
	c7.618-1.746,13.394,5.794,13.394,5.794S66.128,32.051,60.885,37.102z"/>
<path fill="#FFCB00" stroke="#FFDC00" stroke-width="1.4878" stroke-miterlimit="10" d="M113.755,50.957
	c-8.343-16.497-21.529-17.542-29.662-13.844c-0.003-0.005-0.009-0.016-0.009-0.016s0.113-0.05,0.006,0.009
	c-0.112,0.055-0.006-0.007-0.006-0.007s0.006,0.009,0.009,0.016c-8.464,4.695-14.862,15.647-6.517,32.146
	c8.298,16.404,20.839,16.175,28.961,12.454c0.002,0.005,0.006,0.011,0.008,0.018c0,0-0.113,0.05-0.004-0.008
	c0.112-0.055,0.004,0.008,0.004,0.008c-0.002-0.008-0.006-0.013-0.009-0.019C113.02,78.047,122.054,67.363,113.755,50.957z"/>
<rect x="80.399" y="35.164" transform="matrix(-0.9501 -0.3119 0.3119 -0.9501 142.3568 125.0293)" fill="#FFDF00" width="1.556" height="31.933"/>
<rect x="90.692" y="34.725" transform="matrix(-0.9498 -0.3128 0.3128 -0.9498 160.3907 140.5403)" fill="#FFDF00" width="1.555" height="45.356"/>
<rect x="100.73" y="41.591" transform="matrix(-0.9502 -0.3117 0.3117 -0.9502 178.2365 155.0408)" fill="#FFDF00" width="1.557" height="43.37"/>
<rect x="110.959" y="55.426" transform="matrix(-0.9502 -0.3115 0.3115 -0.9502 196.5506 168.5465)" fill="#FFDF00" width="1.555" height="26.298"/>
<rect x="96.763" y="27.667" transform="matrix(-0.3115 0.9502 -0.9502 -0.3115 166.2482 -39.7935)" fill="#FFDF00" width="1.555" height="25.325"/>
<rect x="95.41" y="30.287" transform="matrix(-0.3111 0.9504 -0.9504 -0.3111 175.3942 -23.4285)" fill="#FFDF00" width="1.557" height="43.13"/>
<rect x="94.098" y="40.941" transform="matrix(-0.3119 0.9501 -0.9501 -0.3119 184.6934 -6.9847)" fill="#FFDF00" width="1.556" height="44.895"/>
<rect x="92.787" y="59.058" transform="matrix(-0.3108 0.9505 -0.9505 -0.3108 194.2212 9.7792)" fill="#FFDF00" width="1.556" height="32.501"/>
<path fill="none" d="M113.755,50.957C105.412,34.46,91.561,33.75,84.093,37.113c-0.003-0.005-0.009-0.016-0.009-0.016
	s-0.218,0.118-0.326,0.175c-0.114,0.055-0.338,0.16-0.338,0.16s0.006,0.011,0.009,0.017c-7.8,4.36-14.862,15.648-6.518,32.144
	c8.299,16.406,22.17,15.509,28.96,12.454c0.005,0.008,0.008,0.013,0.009,0.019c0,0,0.219-0.117,0.329-0.175
	c0.113-0.055,0.336-0.159,0.336-0.159c-0.002-0.008-0.006-0.013-0.009-0.019C113.019,78.047,122.055,67.363,113.755,50.957z"/>
<g>
	
		<path fill="#20A84A" stroke="#009139" stroke-width="2.0143" stroke-linecap="round" stroke-linejoin="round" stroke-miterlimit="10" d="
		M39.854,5.916c0,0-9.766,13.492,6.061,22.021C54.848,20.794,46.565,10.134,39.854,5.916z"/>
	
		<path fill="none" stroke="#B08E72" stroke-width="2.0143" stroke-linecap="round" stroke-linejoin="round" stroke-miterlimit="10" d="
		M44.342,33.659c0,0-1.834-6.973,10.675-6.516"/>
	<path fill="#EE7542" stroke="#E95314" stroke-width="2.0143" stroke-miterlimit="10" d="M12.257,30.083
		c-9.79,9.099-10.618,23.409-2.545,32.095c8.075,8.685,22.972,10.144,32.444,1.336c9.477-8.807,8.506-22.992,0.764-31.321
		C35.176,23.862,19.838,23.035,12.257,30.083z"/>
	<circle fill="#E95314" cx="41.103" cy="47.762" r="1.92"/>
	<circle fill="#E95314" cx="38.111" cy="56.657" r="1.919"/>
	<circle fill="#E95314" cx="29.534" cy="55.563" r="2.197"/>
	<circle fill="#E95314" cx="33.055" cy="48.503" r="1.067"/>
</g>
</svg>
