<?xml version="1.0" encoding="utf-8"?>
<!-- Generator: Adobe Illustrator 16.0.0, SVG Export Plug-In . SVG Version: 6.00 Build 0)  -->
<!DOCTYPE svg PUBLIC "-//W3C//DTD SVG 1.1//EN" "http://www.w3.org/Graphics/SVG/1.1/DTD/svg11.dtd">
<svg version="1.1" id="Layer_1" xmlns="http://www.w3.org/2000/svg" xmlns:xlink="http://www.w3.org/1999/xlink" x="0px" y="0px"
	 width="120px" height="120px" viewBox="0 0 120 120" enable-background="new 0 0 120 120" xml:space="preserve">
<g>
	
		<path fill="none" stroke="#B08E72" stroke-width="1.7484" stroke-linecap="round" stroke-linejoin="round" stroke-miterlimit="10" d="
		M82.555,30.635c0,0-7.221-7.414-14.391-2.126"/>
	
		<path fill="#20A84A" stroke="#009139" stroke-width="1.7484" stroke-linecap="round" stroke-linejoin="round" stroke-miterlimit="10" d="
		M81.681,7.848c0,0,11.611,10.595-0.496,19.532C71.807,23.655,81.681,7.848,81.681,7.848z"/>
	<path fill="#71B744" stroke="#3D7830" stroke-width="1.7484" stroke-miterlimit="10" d="M85.688,25.296
		c-3.474,2.858-1.216,3.999-2.837,5.809c-2.088,1.243-2.772-1.195-6.246,1.663c-2.236,1.841-10.241,10.069-1.958,20.137
		c8.284,10.069,21.563,11.103,24.57,8.629c2.921-2.403,1.866-3.452,4.094-5.562c2.5-1.779,3.325-0.542,6.246-2.945
		c3.007-2.475,4.551-15.703-3.733-25.772C97.541,17.186,87.925,23.456,85.688,25.296z"/>
	<path fill="#71B744" stroke="#3D7830" stroke-width="1.7484" stroke-miterlimit="10" d="M74.133,43.506
		c2.368,7.368,10.524,14.122,18.331,14.7"/>
</g>
<g>
	<path fill="#87BD24" stroke="#71902C" stroke-linecap="round" stroke-linejoin="round" stroke-miterlimit="10" d="M47.299,71.896
		c0.352-1.877,1.02-3.842,2.6-5.84c2.055,1.49,3.279,3.193,4.132,4.901c0.603,1.333,1.087,2.891,1.294,4.654
		c0.02,0.254,0.032,0.501,0.038,0.738c0.01-0.005,0.021-0.01,0.031-0.014c0.186,2.604-0.238,5.711-1.759,9.125
		c-0.311,0.058-0.627,0.179-0.964,0.229c0.01,0,0.021,0.402,0.031,0.4c0.001,0-0.053,0.408-0.063,0.408c-0.001,0-1.139,0-1.139,0
		v-0.573c0,0.036-0.086-0.105-0.39-0.075c-2.397-2.87-3.371-5.798-3.906-8.354c0.012,0.001,0.16-0.026,0.172-0.026
		c-0.061-0.228-0.054-0.481-0.103-0.731C46.99,74.986,47.083,73.345,47.299,71.896z"/>
	<path fill="#87BD24" stroke="#71902C" stroke-linecap="round" stroke-linejoin="round" stroke-miterlimit="10" d="M70.139,79.366
		c0.826-1.722,1.447-3.7,1.354-6.247c-2.54-0.012-4.533,0.638-6.23,1.514c-1.274,0.719-2.585,1.688-3.795,2.989
		c-0.167,0.193-0.321,0.384-0.467,0.572c-0.005-0.01-0.012-0.019-0.017-0.03c-1.688,1.992-3.184,4.748-3.973,8.401
		c0.216,0.23,0.399,0.517,0.641,0.757c-0.008-0.008-0.017-0.014-0.023-0.021c0,0,0.039,0.114,0.045,0.12
		c0,0.003,0.002,0.079,0.002,0.079h0.002c0.243,0,0.522,0.316,0.748,0.522c3.631-0.901,6.341-2.511,8.284-4.257
		c-0.011-0.006-0.018-0.027-0.027-0.035c0.184-0.148,0.377-0.314,0.565-0.485C68.514,81.997,69.457,80.663,70.139,79.366z"/>
	
		<path fill="#87BD24" stroke="#71902C" stroke-width="2.0203" stroke-linecap="round" stroke-linejoin="round" stroke-miterlimit="10" d="
		M62.057,75.638c-0.014-1.909-0.324-3.962-1.525-6.206c-2.288,1.104-3.794,2.562-4.934,4.093c-0.83,1.207-1.581,2.654-2.097,4.353
		c-0.065,0.246-0.121,0.486-0.167,0.72c-0.009-0.008-0.019-0.013-0.029-0.018c-0.643,2.53-0.775,5.661,0.12,9.291
		c0.296,0.11,0.476,0.622,0.8,0.732c-0.011-0.004-0.131,0.33-0.141,0.327c-0.001-0.001,0.051,0.017,0.06,0.019
		c0.001,0-0.742-0.241-0.742-0.241l0.22-0.675c0.963,0.306,1.014,0.248,1.308,0.331c2.866-2.4,4.799-4.942,5.777-7.365
		c-0.012,0,0.074,0.031,0.063,0.03c0.101-0.215,0.252-0.424,0.345-0.66C61.701,78.691,62.014,77.101,62.057,75.638z"/>
	<path fill="#87BD24" stroke="#71902C" stroke-linecap="round" stroke-linejoin="round" stroke-miterlimit="10" d="M71.633,84.948
		c1.339-1.36,2.571-3.03,3.309-5.468c-2.398-0.837-4.493-0.87-6.383-0.595c-1.439,0.268-2.994,0.757-4.56,1.595
		c-0.22,0.129-0.431,0.259-0.627,0.392c-0.002-0.013-0.005-0.023-0.007-0.035c-2.245,1.337-4.552,3.457-6.487,6.656
		c0.131,0.288,0.211,0.616,0.362,0.923c-0.006-0.01-0.012-0.019-0.016-0.027c0-0.001,0.024,0.072,0.028,0.084
		c0,0,0.002,0.027,0.002,0.027h0.002c0.158,0,0.366,0.517,0.514,0.782c3.725,0.329,6.8-0.291,9.205-1.311
		c-0.009-0.008-0.014-0.021-0.021-0.029c0.222-0.082,0.455-0.169,0.688-0.271C69.244,86.904,70.567,85.951,71.633,84.948z"/>
	<path fill="#87BD24" stroke="#71902C" stroke-linecap="round" stroke-linejoin="round" stroke-miterlimit="10" d="M42.65,76.438
		c-0.277-1.89-0.284-3.966,0.561-6.368c2.429,0.744,4.141,1.954,5.501,3.294c1.003,1.067,1.967,2.38,2.736,3.981
		c0.101,0.234,0.194,0.462,0.274,0.685c0.008-0.009,0.018-0.015,0.025-0.023c1.021,2.406,1.63,5.479,1.3,9.205
		c-0.275,0.153-0.535,0.371-0.837,0.529c0.01-0.005,0.021-0.136,0.029-0.143c0.001,0-0.039-0.098-0.048-0.098
		c-0.001,0-0.693,0-0.693,0v0.254c0,0.142-0.276,0.223-0.552,0.35c-3.199-1.936-5.153-4.24-6.488-6.485
		c0.011-0.002,0.104-0.005,0.115-0.006c-0.133-0.197-0.228-0.403-0.356-0.624C43.381,79.425,42.917,77.877,42.65,76.438z"/>
	
		<ellipse transform="matrix(0.9505 0.3108 -0.3108 0.9505 36.2973 -9.3184)" fill="#EF7D80" stroke="#E94A48" stroke-width="1.8944" stroke-miterlimit="10" cx="47.389" cy="109.239" rx="5.097" ry="6.672"/>
	
		<ellipse transform="matrix(0.9504 0.311 -0.311 0.9504 36.2449 -12.2447)" fill="#EF7D80" stroke="#E94A48" stroke-width="1.8944" stroke-miterlimit="10" cx="56.523" cy="107.545" rx="5.097" ry="6.673"/>
	
		<ellipse transform="matrix(0.9504 0.311 -0.311 0.9504 34.2143 -7.7765)" fill="#EF7D80" stroke="#E94A48" stroke-width="1.8944" stroke-miterlimit="10" cx="41.495" cy="103.411" rx="5.097" ry="6.672"/>
	
		<ellipse transform="matrix(0.9505 0.3109 -0.3109 0.9505 29.304 -8.4537)" fill="#EF7D80" stroke="#E94A48" stroke-width="1.8944" stroke-miterlimit="10" cx="41.173" cy="87.705" rx="5.097" ry="6.674"/>
	
		<ellipse transform="matrix(0.9505 0.3109 -0.3109 0.9505 33.0353 -15.7206)" fill="#EF7D80" stroke="#E94A48" stroke-width="1.8944" stroke-miterlimit="10" cx="65.833" cy="95.772" rx="5.097" ry="6.672"/>
	
		<ellipse transform="matrix(0.9504 0.311 -0.311 0.9504 29.2313 -10.3352)" fill="#EF7D80" stroke="#E94A48" stroke-width="1.8944" stroke-miterlimit="10" cx="47.026" cy="86.5" rx="5.097" ry="6.672"/>
	
		<ellipse transform="matrix(0.9504 0.311 -0.311 0.9504 31.7029 -6.9683)" fill="#EF7D80" stroke="#E94A48" stroke-width="1.8944" stroke-miterlimit="10" cx="37.703" cy="95.93" rx="5.096" ry="6.673"/>
	
		<ellipse transform="matrix(0.9505 0.3108 -0.3108 0.9505 35.1025 -14.653)" fill="#EF7D80" stroke="#E94A48" stroke-width="1.8944" stroke-miterlimit="10" cx="63.529" cy="102.817" rx="5.096" ry="6.671"/>
	
		<ellipse transform="matrix(0.9505 0.3108 -0.3108 0.9505 31.3913 -9.4738)" fill="#EF7D80" stroke="#E94A48" stroke-width="1.8944" stroke-miterlimit="10" cx="45.427" cy="93.776" rx="5.097" ry="6.673"/>
	
		<ellipse transform="matrix(0.9505 0.3108 -0.3108 0.9505 31.1352 -14.5897)" fill="#EF7D80" stroke="#E94A48" stroke-width="1.8944" stroke-miterlimit="10" cx="61.349" cy="90.405" rx="5.097" ry="6.671"/>
	
		<ellipse transform="matrix(0.9505 0.3109 -0.3109 0.9505 33.6344 -13.3133)" fill="#EF7D80" stroke="#E94A48" stroke-width="1.8944" stroke-miterlimit="10" cx="58.583" cy="98.86" rx="5.097" ry="6.672"/>
	
		<ellipse transform="matrix(0.9504 0.3109 -0.3109 0.9504 30.4958 -12.3034)" fill="#EF7D80" stroke="#E94A48" stroke-width="1.8944" stroke-miterlimit="10" cx="53.842" cy="89.509" rx="5.097" ry="6.672"/>
	
		<ellipse transform="matrix(0.9505 0.3108 -0.3108 0.9505 34.223 -10.3838)" fill="#EF7D80" stroke="#E94A48" stroke-width="1.8944" stroke-miterlimit="10" cx="49.694" cy="102.192" rx="5.096" ry="6.672"/>
</g>
<g>
	<path fill="#009F42" stroke="#64B87A" stroke-width="1.2529" stroke-miterlimit="10" d="M113.289,84.26
		c0,0-4.881-11.249-15.018-6.853C102.658,84.483,108.033,86.369,113.289,84.26z"/>
	<path fill="#009F42" stroke="#64B87A" stroke-width="1.2529" stroke-miterlimit="10" d="M98.06,100.744
		c0,0,2.319-12.04-8.529-14.131C89.157,94.929,92.53,99.521,98.06,100.744z"/>
	<path fill="#009F42" stroke="#64B87A" stroke-width="1.2529" stroke-miterlimit="10" d="M92.162,81.469
		c0,0,2.318-12.04-8.531-14.133C83.259,75.653,86.632,80.243,92.162,81.469z"/>
	<path fill="#009F42" stroke="#64B87A" stroke-width="1.2529" stroke-miterlimit="10" d="M85.787,94.519
		c0,0,7.094-1.771,5.499-8.164C86.695,88.241,85.06,91.22,85.787,94.519z"/>
	<circle fill="#5C567F" stroke="#746AAE" stroke-width="1.2529" stroke-miterlimit="10" cx="96.583" cy="85.222" r="6.666"/>
	<circle fill="#5C567F" stroke="#746AAE" stroke-width="1.2529" stroke-miterlimit="10" cx="95.504" cy="74.901" r="6.666"/>
	<circle fill="#5C567F" stroke="#746AAE" stroke-width="1.2529" stroke-miterlimit="10" cx="85.918" cy="82.481" r="6.665"/>
	<circle fill="#ECE3F2" cx="83.392" cy="82.171" r="1.019"/>
	<circle fill="#ECE3F2" cx="93.887" cy="85.85" r="1.018"/>
	<circle fill="#ECE3F2" cx="92.002" cy="73.365" r="1.018"/>
</g>
<g>
	<circle fill="#6E7382" stroke="#324A78" stroke-width="1.9547" stroke-miterlimit="10" cx="58.938" cy="46.646" r="8.467"/>
	
		<path fill="none" stroke="#B08E72" stroke-width="1.9547" stroke-linecap="round" stroke-linejoin="round" stroke-miterlimit="10" d="
		M49.144,13.225c0,0-2.816,7.812,8.564,15.267c-6.468-3.902-3.559-2.257-16.489,7.315"/>
	<circle fill="#6E7382" stroke="#324A78" stroke-width="1.9547" stroke-miterlimit="10" cx="16.944" cy="63.202" r="8.468"/>
	<circle fill="#6E7382" stroke="#324A78" stroke-width="1.9547" stroke-miterlimit="10" cx="19.174" cy="49.262" r="8.467"/>
	<circle fill="#6E7382" stroke="#324A78" stroke-width="1.9547" stroke-miterlimit="10" cx="30.63" cy="60.14" r="8.467"/>
	<circle fill="#6E7382" stroke="#324A78" stroke-width="1.9547" stroke-miterlimit="10" cx="44.229" cy="53.448" r="8.468"/>
	<circle fill="#6E7382" stroke="#324A78" stroke-width="1.9547" stroke-miterlimit="10" cx="33.552" cy="44.73" r="8.468"/>
	<circle fill="#6E7382" stroke="#324A78" stroke-width="1.9547" stroke-miterlimit="10" cx="24.481" cy="35.291" r="8.468"/>
	<circle fill="#6E7382" stroke="#324A78" stroke-width="1.9547" stroke-miterlimit="10" cx="29.482" cy="21.07" r="8.468"/>
	<circle fill="#6E7382" stroke="#324A78" stroke-width="1.9547" stroke-miterlimit="10" cx="49.479" cy="38.922" r="8.467"/>
	<circle fill="#6E7382" stroke="#324A78" stroke-width="1.9547" stroke-miterlimit="10" cx="40.328" cy="31.45" r="8.468"/>
	<circle fill="#324A78" cx="48.931" cy="41.917" r="1.469"/>
	<circle fill="#324A78" cx="28.043" cy="20.794" r="1.469"/>
	<circle fill="#324A78" cx="22.102" cy="36.79" r="1.469"/>
	<circle fill="#324A78" cx="31.783" cy="46.729" r="1.469"/>
	<circle fill="#324A78" cx="42.46" cy="55.447" r="1.468"/>
	<circle fill="#324A78" cx="28.25" cy="61.642" r="1.469"/>
	<circle fill="#324A78" cx="17.654" cy="50.955" r="1.469"/>
	<circle fill="#324A78" cx="14.371" cy="65.562" r="1.469"/>
	<circle fill="#324A78" cx="38.558" cy="33.448" r="1.469"/>
	<circle fill="#324A78" cx="61.352" cy="48.5" r="1.469"/>
</g>
</svg>
