<?xml version="1.0" encoding="utf-8"?>
<!-- Generator: Adobe Illustrator 16.0.0, SVG Export Plug-In . SVG Version: 6.00 Build 0)  -->
<!DOCTYPE svg PUBLIC "-//W3C//DTD SVG 1.1//EN" "http://www.w3.org/Graphics/SVG/1.1/DTD/svg11.dtd">
<svg version="1.1" id="Layer_1" xmlns="http://www.w3.org/2000/svg" xmlns:xlink="http://www.w3.org/1999/xlink" x="0px" y="0px"
	 width="220px" height="340px" viewBox="0 0 220 340" enable-background="new 0 0 220 340" xml:space="preserve">
<path fill="#ACACAC" fill-opacity="0.4" stroke="#FFFFFF" stroke-width="9.5798" stroke-miterlimit="10" d="M190.418,325.567
	c0,5.303-4.281,9.6-9.563,9.6l-140.777-0.092c-5.281,0-9.562-4.297-9.562-9.6L5.272,14.877c0-5.3,4.281-9.597,9.562-9.597h190.229
	c5.281,0,9.563,4.297,9.563,9.597L190.418,325.567z"/>
<g>
	
		<path fill="none" stroke="#B08E72" stroke-width="3.3452" stroke-linecap="round" stroke-linejoin="round" stroke-miterlimit="10" d="
		M92.704,252.296c0,0,7.645-18.267-7.036-26.931"/>
	
		<path fill="#20A84A" stroke="#009139" stroke-width="3.3452" stroke-linecap="round" stroke-linejoin="round" stroke-miterlimit="10" d="
		M132.167,233.688c0,0-9.957,28.376-34.76,13.755C96.941,228.144,132.167,233.688,132.167,233.688z"/>
	<path fill="#71B744" stroke="#3D7830" stroke-width="3.3452" stroke-miterlimit="10" d="M104.451,253.811
		c-7.635-3.974-7.951,0.858-12.351-0.643c-3.751-2.743,0.026-5.774-7.606-9.749c-4.917-2.561-25.398-10.49-36.919,11.636
		c-11.521,22.126-3.395,46.278,3.212,49.719c6.419,3.343,7.475,0.702,12.857,3.043c5.005,3.067,3.447,5.447,9.866,8.789
		c6.607,3.44,31.055-3.75,42.577-25.876C127.608,268.604,109.368,256.371,104.451,253.811z"/>
	<path fill="#71B744" stroke="#3D7830" stroke-width="3.3452" stroke-miterlimit="10" d="M63.735,247.108
		c-11.197,9.688-16.979,29.105-12.148,43.283"/>
</g>
<g>
	<circle fill="#6E7382" stroke="#324A78" stroke-width="4.1999" stroke-miterlimit="10" cx="139.939" cy="140.546" r="18.194"/>
	
		<path fill="none" stroke="#B08E72" stroke-width="4.1999" stroke-linecap="round" stroke-linejoin="round" stroke-miterlimit="10" d="
		M97.149,79.159c0,0-0.399,17.839,27.877,25.247c-15.839-3.529-8.79-2.165-28.589,26.17"/>
	<circle fill="#6E7382" stroke="#324A78" stroke-width="4.1999" stroke-miterlimit="10" cx="65.71" cy="202.975" r="18.195"/>
	<circle fill="#6E7382" stroke="#324A78" stroke-width="4.1999" stroke-miterlimit="10" cx="60.726" cy="173.051" r="18.195"/>
	<circle fill="#6E7382" stroke="#324A78" stroke-width="4.1999" stroke-miterlimit="10" cx="91.497" cy="187.383" r="18.194"/>
	<circle fill="#6E7382" stroke="#324A78" stroke-width="4.1999" stroke-miterlimit="10" cx="114.627" cy="164.458" r="18.195"/>
	<circle fill="#6E7382" stroke="#324A78" stroke-width="4.1999" stroke-miterlimit="10" cx="86.918" cy="153.995" r="18.195"/>
	<circle fill="#6E7382" stroke="#324A78" stroke-width="4.1999" stroke-miterlimit="10" cx="61.988" cy="140.963" r="18.195"/>
	<circle fill="#6E7382" stroke="#324A78" stroke-width="4.1999" stroke-miterlimit="10" cx="62.458" cy="108.575" r="18.195"/>
	<circle fill="#6E7382" stroke="#324A78" stroke-width="4.1999" stroke-miterlimit="10" cx="115.396" cy="131.279" r="18.195"/>
	<circle fill="#6E7382" stroke="#324A78" stroke-width="4.1999" stroke-miterlimit="10" cx="91.645" cy="122.311" r="18.194"/>
	<circle fill="#324A78" cx="116.323" cy="137.754" r="3.156"/>
	<circle fill="#324A78" cx="59.338" cy="109" r="3.156"/>
	<circle fill="#324A78" cx="58.166" cy="145.645" r="3.156"/>
	<circle fill="#324A78" cx="84.679" cy="159.275" r="3.156"/>
	<circle fill="#324A78" cx="112.389" cy="169.737" r="3.156"/>
	<circle fill="#324A78" cx="87.676" cy="192.066" r="3.156"/>
	<circle fill="#324A78" cx="58.786" cy="177.54" r="3.156"/>
	<circle fill="#324A78" cx="62.082" cy="209.539" r="3.156"/>
	<circle fill="#324A78" cx="89.406" cy="127.59" r="3.156"/>
	<circle fill="#324A78" cx="146.126" cy="142.675" r="3.156"/>
</g>
<g>
	<path fill="#009F42" stroke="#64B87A" stroke-width="2.1704" stroke-miterlimit="10" d="M134.811,263.049
		c0,0-5.452,20.526,13.044,25.445C149.497,274.167,144.219,265.828,134.811,263.049z"/>
	<path fill="#009F42" stroke="#64B87A" stroke-width="2.1704" stroke-miterlimit="10" d="M173.217,257.012
		c0,0-16.086,13.868-3.593,28.366C179.065,274.479,179.415,264.615,173.217,257.012z"/>
	<path fill="#009F42" stroke="#64B87A" stroke-width="2.1704" stroke-miterlimit="10" d="M160.521,289.541
		c0,0-16.087,13.868-3.593,28.367C166.369,307.009,166.719,297.146,160.521,289.541z"/>
	<path fill="#009F42" stroke="#64B87A" stroke-width="2.1704" stroke-miterlimit="10" d="M183.204,278.658
		c0,0-11.541-5.215-16.243,5.184C175.227,286.21,180.648,283.921,183.204,278.658z"/>
	<circle fill="#5C567F" stroke="#746AAE" stroke-width="2.1704" stroke-miterlimit="10" cx="158.545" cy="279.691" r="11.546"/>
	<circle fill="#5C567F" stroke="#746AAE" stroke-width="2.1704" stroke-miterlimit="10" cx="148.924" cy="294.873" r="11.547"/>
	<circle fill="#5C567F" stroke="#746AAE" stroke-width="2.1704" stroke-miterlimit="10" cx="170.092" cy="294.873" r="11.546"/>
	<circle fill="#ECE3F2" cx="173.192" cy="298.009" r="1.764"/>
	<circle fill="#ECE3F2" cx="162.883" cy="281.73" r="1.764"/>
	<circle fill="#ECE3F2" cx="152.031" cy="300.722" r="1.764"/>
</g>
<g>
	
		<path fill="#87BD24" stroke="#71902C" stroke-width="2.6829" stroke-linecap="round" stroke-linejoin="round" stroke-miterlimit="10" d="
		M135.085,198.582c-1.454-2.281-2.667-4.956-2.971-8.552c3.568-0.451,6.481,0.12,9.018,1.061c1.915,0.794,3.922,1.932,5.846,3.553
		c0.266,0.243,0.519,0.486,0.754,0.727c0.006-0.015,0.013-0.029,0.02-0.046c2.714,2.514,5.285,6.131,7.022,11.134
		c-0.267,0.358-0.476,0.792-0.773,1.173c0.01-0.013,0.02-0.022,0.03-0.034c0.001,0-0.048,0.06-0.057,0.07
		c-0.001,0.001-0.003,0.002-0.004,0.005l-0.004-0.004c-0.303,0.354-0.666,0.644-0.95,0.968c-5.256-0.644-9.337-2.39-12.366-4.514
		c0.014-0.009,0.023-0.014,0.035-0.022c-0.283-0.179-0.583-0.364-0.875-0.574C137.817,201.988,136.266,200.285,135.085,198.582z"/>
	
		<path fill="#87BD24" stroke="#71902C" stroke-width="2" stroke-linecap="round" stroke-linejoin="round" stroke-miterlimit="10" d="
		M165.919,184.172c-0.816-2.578-2.091-5.225-4.653-7.765c-2.635,2.448-4.066,5.05-4.972,7.599c-0.62,1.977-1.034,4.248-1.024,6.763
		c0.015,0.36,0.039,0.71,0.072,1.045c-0.015-0.006-0.029-0.011-0.046-0.016c0.187,3.696,1.313,7.989,4.035,12.53
		c0.446,0.026,0.912,0.143,1.396,0.159c-0.016,0-0.03,0.257-0.045,0.257c-0.002,0,0.075,0.256,0.089,0.256c0.003,0,0.229,0,0.229,0
		v-0.515c0-0.005,0.811-0.098,1.24-0.108c2.881-4.445,4.102-8.695,4.416-12.381c-0.016,0.004-0.053,0.007-0.069,0.012
		c0.046-0.333,0.081-0.681,0.108-1.041C166.794,188.454,166.47,186.171,165.919,184.172z"/>
	
		<path fill="#87BD24" stroke="#71902C" stroke-width="2.6829" stroke-linecap="round" stroke-linejoin="round" stroke-miterlimit="10" d="
		M153.957,188.149c-1.865-1.958-4.173-3.777-7.59-4.934c-1.293,3.357-1.437,6.322-1.131,9.009c0.313,2.05,0.937,4.271,2.05,6.527
		c0.171,0.317,0.347,0.619,0.524,0.906c-0.016,0.002-0.032,0.005-0.048,0.008c1.788,3.237,4.686,6.6,9.125,9.484
		c0.414-0.172,1.019,0.019,1.46-0.18c-0.015,0.007,0.108,0.305,0.095,0.311c-0.001,0.001,0.068-0.032,0.082-0.038
		c0.002,0-0.353,0.166-0.353,0.166l-0.274-0.586c1.211-0.578,0.964-0.575,1.349-0.773c0.635-5.258,0.005-9.679-1.331-13.13
		c-0.013,0.012,0.026-0.002,0.014,0.009c-0.106-0.319-0.191-0.663-0.325-0.999C156.589,191.629,155.329,189.703,153.957,188.149z"/>
	
		<path fill="#87BD24" stroke="#71902C" stroke-width="2" stroke-linecap="round" stroke-linejoin="round" stroke-miterlimit="10" d="
		M172.868,188.492c0.066-2.705-0.278-5.623-1.877-8.856c-3.289,1.459-5.486,3.455-7.171,5.571c-1.228,1.669-2.358,3.682-3.166,6.064
		c-0.104,0.346-0.192,0.684-0.27,1.011c-0.013-0.01-0.027-0.019-0.039-0.028c-1.024,3.555-1.354,7.98-0.255,13.16
		c0.414,0.17,0.816,0.432,1.269,0.604c-0.016-0.005-0.028-0.009-0.043-0.014c-0.001-0.001,0.367,0.026,0.383,0.031
		c0,0,0.301,0.001,0.301,0.002v-0.005c0,0.146,0.607,0.151,1.02,0.282c4.166-3.268,6.458-7.314,7.952-10.314
		c-0.016,0-0.026,0-0.042,0c0.151,0,0.312-0.559,0.453-0.891C172.292,192.766,172.74,190.561,172.868,188.492z"/>
	
		<path fill="#87BD24" stroke="#71902C" stroke-width="2" stroke-linecap="round" stroke-linejoin="round" stroke-miterlimit="10" d="
		M134.683,207.776c-2.115-1.686-4.134-3.822-5.588-7.123c3.229-1.585,6.169-1.991,8.874-1.927c2.068,0.129,4.337,0.554,6.682,1.462
		c0.332,0.144,0.649,0.291,0.949,0.443c0.001-0.017,0.003-0.034,0.004-0.049c3.384,1.494,6.99,4.081,10.259,8.247
		c-0.137,0.426-0.191,0.901-0.353,1.359c0.007-0.015,0.014-0.028,0.019-0.042c0-0.002-0.026-0.048-0.031-0.034
		c0,0.002-0.001-0.113-0.002-0.113h-0.003c-0.173,1-0.422,0.943-0.585,1.342c-5.181,1.1-9.606,0.833-13.161-0.19
		c0.008-0.013,0.015,0.008,0.025-0.005c-0.327-0.076-0.67-0.141-1.017-0.243C138.374,210.096,136.353,209.004,134.683,207.776z"/>
	
		<ellipse transform="matrix(0.9059 -0.4234 0.4234 0.9059 -84.2599 94.8518)" fill="#EF7D80" stroke="#E94A48" stroke-width="2.6829" stroke-miterlimit="10" cx="171.354" cy="237.071" rx="7.218" ry="9.45"/>
	
		<ellipse transform="matrix(0.906 -0.4234 0.4234 0.906 -79.0361 97.1487)" fill="#EF7D80" stroke="#E94A48" stroke-width="2.6829" stroke-miterlimit="10" cx="179.151" cy="226.474" rx="7.218" ry="9.451"/>
	
		<ellipse transform="matrix(0.906 -0.4233 0.4233 0.906 -85.2191 89.832)" fill="#EF7D80" stroke="#E94A48" stroke-width="2.6829" stroke-miterlimit="10" cx="159.62" cy="236.761" rx="7.218" ry="9.449"/>
	
		<ellipse transform="matrix(0.906 -0.4233 0.4233 0.906 -79.945 81.7541)" fill="#EF7D80" stroke="#E94A48" stroke-width="2.6829" stroke-miterlimit="10" cx="144.072" cy="220.849" rx="7.218" ry="9.449"/>
	
		<ellipse transform="matrix(0.9059 -0.4234 0.4234 0.9059 -70.2387 94.4063)" fill="#EF7D80" stroke="#E94A48" stroke-width="2.6829" stroke-miterlimit="10" cx="177.362" cy="205.291" rx="7.218" ry="9.449"/>
	
		<ellipse transform="matrix(0.906 -0.4233 0.4233 0.906 -76.5583 83.17)" fill="#EF7D80" stroke="#E94A48" stroke-width="2.6829" stroke-miterlimit="10" cx="148.953" cy="213.933" rx="7.218" ry="9.449"/>
	
		<ellipse transform="matrix(0.906 -0.4234 0.4234 0.906 -84.5617 84.7386)" fill="#EF7D80" stroke="#E94A48" stroke-width="2.6829" stroke-miterlimit="10" cx="148.455" cy="232.707" rx="7.218" ry="9.449"/>
	
		<ellipse transform="matrix(0.9059 -0.4234 0.4234 0.9059 -73.8515 97.1917)" fill="#EF7D80" stroke="#E94A48" stroke-width="2.6829" stroke-miterlimit="10" cx="181.808" cy="214.802" rx="7.219" ry="9.45"/>
	
		<ellipse transform="matrix(0.906 -0.4233 0.4233 0.906 -79.8891 86.3065)" fill="#EF7D80" stroke="#E94A48" stroke-width="2.6829" stroke-miterlimit="10" cx="154.348" cy="222.999" rx="7.218" ry="9.45"/>
	
		<ellipse transform="matrix(0.906 -0.4234 0.4234 0.906 -70.6492 90.1173)" fill="#EF7D80" stroke="#E94A48" stroke-width="2.6829" stroke-miterlimit="10" cx="167.531" cy="204.091" rx="7.219" ry="9.448"/>
	
		<ellipse transform="matrix(0.9059 -0.4234 0.4234 0.9059 -74.9869 93.4626)" fill="#EF7D80" stroke="#E94A48" stroke-width="2.6829" stroke-miterlimit="10" cx="172.864" cy="215.505" rx="7.218" ry="9.448"/>
	
		<ellipse transform="matrix(0.906 -0.4234 0.4234 0.906 -74.1463 87.0625)" fill="#EF7D80" stroke="#E94A48" stroke-width="2.6829" stroke-miterlimit="10" cx="158.908" cy="210.438" rx="7.218" ry="9.45"/>
	
		<ellipse transform="matrix(0.9059 -0.4234 0.4234 0.9059 -80.6506 92.0754)" fill="#EF7D80" stroke="#E94A48" stroke-width="2.6829" stroke-miterlimit="10" cx="166.91" cy="227.559" rx="7.218" ry="9.449"/>
</g>
<g>
	<path fill="#009F42" stroke="#64B87A" stroke-width="1.7876" stroke-miterlimit="10" d="M68.441,82.037
		c0,0,1.002-17.464-14.735-18.372C54.751,75.497,60.39,81.351,68.441,82.037z"/>
	<path fill="#009F42" stroke="#64B87A" stroke-width="1.7876" stroke-miterlimit="10" d="M38.453,93.264
		c0,0,10.684-13.852-1.795-23.481C30.843,80.139,32.193,88.154,38.453,93.264z"/>
	<path fill="#009F42" stroke="#64B87A" stroke-width="1.7876" stroke-miterlimit="10" d="M43.313,64.917
		c0,0,10.685-13.852-1.796-23.482C35.704,51.791,37.054,59.807,43.313,64.917z"/>
	<path fill="#009F42" stroke="#64B87A" stroke-width="1.7876" stroke-miterlimit="10" d="M26.812,77.451
		c0,0,10.175,2.298,12.248-6.87C31.999,70.038,28.003,72.782,26.812,77.451z"/>
	<circle fill="#5C567F" stroke="#746AAE" stroke-width="1.7876" stroke-miterlimit="10" cx="46.537" cy="72.537" r="9.51"/>
	<circle fill="#5C567F" stroke="#746AAE" stroke-width="1.7876" stroke-miterlimit="10" cx="51.787" cy="58.695" r="9.511"/>
	<circle fill="#5C567F" stroke="#746AAE" stroke-width="1.7876" stroke-miterlimit="10" cx="34.708" cy="62.198" r="9.51"/>
	<circle fill="#ECE3F2" cx="31.688" cy="60.181" r="1.453"/>
	<circle fill="#ECE3F2" cx="42.7" cy="71.609" r="1.453"/>
	<circle fill="#ECE3F2" cx="48.313" cy="54.49" r="1.453"/>
</g>
<g>
	
		<path fill="#87BD24" stroke="#71902C" stroke-width="3" stroke-linecap="round" stroke-linejoin="round" stroke-miterlimit="10" d="
		M156.654,31.971c1.229-3.126,3.028-6.295,6.416-9.226c3.059,3.253,4.611,6.594,5.519,9.827c0.601,2.502,0.923,5.347,0.7,8.461
		c-0.05,0.445-0.109,0.876-0.179,1.288c0.019-0.005,0.039-0.009,0.061-0.015c-0.543,4.56-2.296,9.782-6.051,15.178
		c-0.555-0.006-1.142,0.101-1.741,0.081c0.019,0,0.036-0.029,0.056-0.027c0.001,0.001-0.003-0.038-0.019-0.038
		c-0.002,0,0.084,0,0.084,0v0.058c-1-0.046-1.225-0.199-1.757-0.247c-3.19-5.747-4.463-11.118-4.543-15.71
		c0.019,0.007,0.009,0.014,0.026,0.019c-0.027-0.415-0.071-0.851-0.074-1.297C155.241,37.201,155.807,34.4,156.654,31.971z"/>
	
		<path fill="#87BD24" stroke="#71902C" stroke-width="2" stroke-linecap="round" stroke-linejoin="round" stroke-miterlimit="10" d="
		M193.629,52.404c1.993-2.702,3.719-5.913,4.398-10.339c-4.382-0.858-8.037-0.396-11.258,0.556c-2.437,0.82-5.02,2.062-7.537,3.908
		c-0.351,0.278-0.684,0.558-0.996,0.835c-0.004-0.019-0.011-0.038-0.018-0.057c-3.574,2.886-7.063,7.148-9.633,13.198
		c0.3,0.467,0.522,1.019,0.859,1.516c-0.012-0.016,0.018-0.06,0.007-0.074c-0.001-0.001,0.096,0.046,0.105,0.06
		c0.003,0.003,0.346,0.476,0.346,0.476l-0.078,0.058c0.004-0.003,0.601,0.621,0.925,1.044c6.565-0.354,11.678-2.293,15.608-4.667
		c-0.017-0.014-0.068-0.08-0.085-0.092c0.367-0.197,0.731-0.431,1.112-0.667C189.98,56.424,192.024,54.417,193.629,52.404z"/>
	
		<path fill="#87BD24" stroke="#71902C" stroke-width="3.3301" stroke-linecap="round" stroke-linejoin="round" stroke-miterlimit="10" d="
		M180.904,43.3c0.604-3.302,0.746-6.947-0.588-11.221c-4.315,1.152-7.396,3.173-9.869,5.441c-1.83,1.81-3.604,4.058-5.057,6.823
		c-0.193,0.403-0.368,0.8-0.526,1.188c-0.014-0.016-0.028-0.029-0.044-0.044c-1.944,4.159-3.204,9.522-2.858,16.085
		c0.474,0.29,0.725,1.036,1.246,1.334c-0.019-0.01-0.228,0.332-0.243,0.322c-0.002,0,0.082,0.044,0.098,0.054
		c0.002,0.002-0.424-0.232-0.424-0.232l0.388-0.703c1.465,0.794,1.281,0.547,1.761,0.789c5.742-3.201,9.72-7.061,12.21-10.921
		c-0.021-0.005,0.021,0.024,0.001,0.02c0.242-0.34,0.526-0.676,0.765-1.056C179.333,48.482,180.346,45.812,180.904,43.3z"/>
	
		<path fill="#87BD24" stroke="#71902C" stroke-width="2" stroke-linecap="round" stroke-linejoin="round" stroke-miterlimit="10" d="
		M194.365,62.534c2.764-1.907,5.441-4.383,7.521-8.349c-3.865-2.237-7.474-2.986-10.827-3.131c-2.572-0.015-5.643,0.319-8.623,1.248
		C182.014,52.451,182,52.608,181,52.77c0-0.02,0-0.042,0-0.06c-4,1.566-8.776,4.466-13.173,9.351
		c0.131,0.54,0.274,1.134,0.431,1.714c-0.006-0.019,0.045-0.034,0.039-0.053c0-0.002,0.287,0.412,0.295,0.433
		c0,0,0.25,0.327,0.25,0.328l0.011-0.003c-0.146,0.107,0.102,0.823,0.271,1.332c6.321,1.797,12.45,0.82,15.967,0.556
		c-0.011-0.015-0.018-0.026-0.028-0.042c0.11,0.152,0.965-0.223,1.401-0.323C189.479,65.203,192.195,63.916,194.365,62.534z"/>
	
		<path fill="#87BD24" stroke="#71902C" stroke-width="2" stroke-linecap="round" stroke-linejoin="round" stroke-miterlimit="10" d="
		M147.131,38.279c0.147-3.354,0.819-6.939,3.071-10.809c3.948,2.085,6.502,4.739,8.413,7.502c1.38,2.169,2.609,4.757,3.409,7.774
		c0.099,0.438,0.183,0.864,0.247,1.276c0.019-0.011,0.037-0.021,0.053-0.032c0.971,4.488,1.006,9.997-0.79,16.319
		c-0.526,0.174-1.044,0.467-1.622,0.639c0.02-0.004,0.038-0.007,0.056-0.012c0.002-0.001,0.005-0.045-0.012-0.04
		c-0.002,0.001,0.09-0.067,0.09-0.068l-0.002-0.002c-0.936,0.414-1.233,0.247-1.751,0.375c-4.886-4.398-7.838-9.043-9.405-13.36
		c0.018-0.001,0.008,0.017,0.029,0.018c-0.163-0.384-0.346-0.777-0.495-1.2C147.494,43.679,147.117,40.851,147.131,38.279z"/>
	
		<ellipse transform="matrix(0.8753 0.4837 -0.4837 0.8753 64.6865 -57.8504)" fill="#EF7D80" stroke="#E94A48" stroke-width="3.3301" stroke-miterlimit="10" cx="144.494" cy="96.478" rx="8.959" ry="11.73"/>
	
		<ellipse transform="matrix(0.8752 0.4837 -0.4837 0.8752 66.779 -65.7434)" fill="#EF7D80" stroke="#E94A48" stroke-width="3.3301" stroke-miterlimit="10" cx="160.823" cy="96.569" rx="8.96" ry="11.731"/>
	
		<ellipse transform="matrix(0.8752 0.4837 -0.4837 0.8752 57.8628 -55.3627)" fill="#EF7D80" stroke="#E94A48" stroke-width="3.3301" stroke-miterlimit="10" cx="136.238" cy="84.471" rx="8.96" ry="11.729"/>
	
		<ellipse transform="matrix(0.8752 0.4838 -0.4838 0.8752 45.2735 -60.999)" fill="#EF7D80" stroke="#E94A48" stroke-width="3.3301" stroke-miterlimit="10" cx="140.862" cy="57.247" rx="8.959" ry="11.729"/>
	
		<ellipse transform="matrix(0.8753 0.4836 -0.4836 0.8753 60.9051 -77.5401)" fill="#EF7D80" stroke="#E94A48" stroke-width="3.3301" stroke-miterlimit="10" cx="180.783" cy="79.309" rx="8.96" ry="11.728"/>
	<path fill="#EF7D80" stroke="#E94A48" stroke-width="3.3301" stroke-miterlimit="10" d="M159.21,61.433
		c-3.133,5.666-9.186,8.322-13.516,5.931c-4.331-2.395-5.301-8.93-2.168-14.6c3.134-5.67,9.183-8.326,13.515-5.933
		C161.372,49.225,162.343,55.762,159.21,61.433z"/>
	
		<ellipse transform="matrix(0.8752 0.4837 -0.4837 0.8752 50.4947 -55.1529)" fill="#EF7D80" stroke="#E94A48" stroke-width="3.3301" stroke-miterlimit="10" cx="132.158" cy="70.304" rx="8.959" ry="11.729"/>
	
		<ellipse transform="matrix(0.8753 0.4837 -0.4837 0.8753 65.6392 -73.0718)" fill="#EF7D80" stroke="#E94A48" stroke-width="3.3301" stroke-miterlimit="10" cx="174.48" cy="90.715" rx="8.96" ry="11.729"/>
	<path fill="#EF7D80" stroke="#E94A48" stroke-width="3.3301" stroke-miterlimit="10" d="M154.046,73.467
		c-3.132,5.67-9.184,8.326-13.515,5.934c-4.331-2.395-5.301-8.933-2.168-14.602c3.136-5.668,9.184-8.326,13.515-5.931
		C156.21,61.264,157.181,67.8,154.046,73.467z"/>
	
		<ellipse transform="matrix(0.8752 0.4837 -0.4837 0.8752 54.9778 -76.003)" fill="#EF7D80" stroke="#E94A48" stroke-width="3.3301" stroke-miterlimit="10" cx="174.81" cy="68.565" rx="8.96" ry="11.727"/>
	
		<ellipse transform="matrix(0.8752 0.4837 -0.4837 0.8752 60.651 -70.6339)" fill="#EF7D80" stroke="#E94A48" stroke-width="3.3301" stroke-miterlimit="10" cx="167.245" cy="82.251" rx="8.959" ry="11.728"/>
	
		<ellipse transform="matrix(0.8752 0.4837 -0.4837 0.8752 51.4519 -70.3795)" fill="#EF7D80" stroke="#E94A48" stroke-width="3.3301" stroke-miterlimit="10" cx="162.145" cy="64.541" rx="8.959" ry="11.73"/>
	
		<ellipse transform="matrix(0.8753 0.4837 -0.4837 0.8753 59.9568 -62.3219)" fill="#EF7D80" stroke="#E94A48" stroke-width="3.3301" stroke-miterlimit="10" cx="150.798" cy="85.073" rx="8.959" ry="11.728"/>
</g>
</svg>
