<?xml version="1.0" encoding="utf-8"?>
<!-- Generator: Adobe Illustrator 16.0.0, SVG Export Plug-In . SVG Version: 6.00 Build 0)  -->
<!DOCTYPE svg PUBLIC "-//W3C//DTD SVG 1.1//EN" "http://www.w3.org/Graphics/SVG/1.1/DTD/svg11.dtd">
<svg version="1.1" id="Layer_1" xmlns="http://www.w3.org/2000/svg" xmlns:xlink="http://www.w3.org/1999/xlink" x="0px" y="0px"
	 width="220px" height="340px" viewBox="0 0 220 340" enable-background="new 0 0 220 340" xml:space="preserve">
<path fill="#ACACAC" fill-opacity="0.4" stroke="#FFFFFF" stroke-width="9.5798" stroke-miterlimit="10" d="M190.418,325.567
	c0,5.303-4.281,9.6-9.563,9.6l-140.777-0.092c-5.281,0-9.562-4.297-9.562-9.6L5.272,14.877c0-5.3,4.281-9.597,9.562-9.597h190.229
	c5.281,0,9.563,4.297,9.563,9.597L190.418,325.567z"/>
<g>
	
		<path fill="none" stroke="#B08E72" stroke-width="3.6445" stroke-linecap="round" stroke-linejoin="round" stroke-miterlimit="10" d="
		M62.574,61.927c0,0-6.779-20.481-25.041-17.104"/>
	
		<path fill="#20A84A" stroke="#009139" stroke-width="3.6445" stroke-linecap="round" stroke-linejoin="round" stroke-miterlimit="10" d="
		M81.703,18.413c0,0,12.108,30.444-18.734,36.161C48.786,39.045,81.703,18.413,81.703,18.413z"/>
	<path fill="#71B744" stroke="#3D7830" stroke-width="3.6445" stroke-miterlimit="10" d="M73.313,54.772
		c-9.117,2.192-5.922,6.391-10.611,8.303c-5.045,0.428-4.107-4.765-13.223-2.573c-5.873,1.412-28.377,9.539-22.025,35.963
		c6.352,26.425,30.303,40.466,38.193,38.57c7.667-1.843,6.646-4.769,12.744-6.693c6.308-1.057,6.729,2.012,14.395,0.17
		c7.891-1.897,22.843-25.29,16.491-51.714C102.924,50.373,79.185,53.361,73.313,54.772z"/>
	<path fill="#71B744" stroke="#3D7830" stroke-width="3.6445" stroke-miterlimit="10" d="M35.053,78.378
		c-2.276,15.971,6.857,36.064,20.966,44.265"/>
</g>
<g>
	<path fill="#FFCB00" d="M98.106,320.534l0.375,1.918c0,0,29.629,7.585,55.442-19.013c25.814-26.598,49.219-83.773,13.039-136.11
		c-18.167-22.799-36.573-23.999-36.573-23.999l-8.859-12.829c0,0-1.616-1.015-3.62,0.445c-2.005,1.46-2.298,2.793,9.46,15.458
		c8.443,13.328,26.515,37.463,19.766,92.636C135.235,295.434,107.18,313.338,98.106,320.534z"/>
	<path fill="#FDC724" d="M136.384,146.463c21.199,22.383,28.445,50.992,30.009,74.39c1.565,23.404-12.449,63.124-28.426,80.898
		c-10.747,11.957-22.574,19.146-29.17,22.578c11.018-0.497,27.502-4.317,42.674-19.949c25.814-26.599,49.218-83.775,13.04-136.109
		C154.005,155.088,143.442,149.147,136.384,146.463z"/>
	<path fill="none" stroke="#FFDC00" stroke-width="5.3545" stroke-miterlimit="10" d="M98.106,320.534l0.375,1.918
		c0,0,29.629,7.585,55.442-19.013c25.814-26.598,49.219-83.773,13.039-136.11c-18.167-22.799-36.573-23.999-36.573-23.999
		l-8.859-12.829c0,0-1.616-1.015-3.62,0.445c-2.005,1.46-2.298,2.793,9.46,15.458c8.443,13.328,26.515,37.463,19.766,92.636
		C135.235,295.434,107.18,313.338,98.106,320.534z"/>
</g>
<g>
	<circle fill="#73B72B" stroke="#628037" stroke-width="3.0986" stroke-miterlimit="10" cx="158.218" cy="99.209" r="36.667"/>
	<g>
		<path fill="#FCD5AD" d="M157.161,89.055c0.582-1.975,1.533-1.975,2.114,0c0.582,1.975,2.393,2.563,4.023,1.308
			c1.632-1.255,2.402-0.696,1.713,1.244c-0.69,1.939,0.429,3.479,2.486,3.422c2.058-0.057,2.352,0.848,0.653,2.012
			s-1.698,3.067,0,4.23c1.698,1.164,1.404,2.069-0.653,2.013c-2.058-0.057-3.177,1.483-2.486,3.423
			c0.689,1.939-0.081,2.499-1.713,1.243c-1.631-1.256-3.441-0.667-4.023,1.307c-0.581,1.975-1.532,1.975-2.114,0
			s-2.393-2.563-4.024-1.307c-1.631,1.256-2.401,0.696-1.711-1.243c0.689-1.939-0.43-3.48-2.487-3.423
			c-2.058,0.057-2.352-0.849-0.653-2.013c1.698-1.163,1.698-3.067,0-4.23s-1.404-2.068,0.653-2.012
			c2.058,0.057,3.177-1.483,2.487-3.422c-0.69-1.939,0.08-2.499,1.711-1.244C154.769,91.618,156.579,91.029,157.161,89.055z"/>
	</g>
	<g>
		<path fill="#628037" d="M158.141,83.8c0,0,4.673-6.277,0.338-6.502S158.141,83.8,158.141,83.8z"/>
		<path fill="#628037" d="M158.479,115.256c0,0-4.672,6.276-0.338,6.502C162.476,121.983,158.479,115.256,158.479,115.256z"/>
	</g>
	<g>
		<path fill="#628037" d="M146.78,88.208c0,0-1.135-7.743-4.359-4.836C139.197,86.278,146.78,88.208,146.78,88.208z"/>
		<path fill="#628037" d="M169.262,110.212c0,0,1.135,7.742,4.358,4.836C176.845,112.143,169.262,110.212,169.262,110.212z"/>
	</g>
	<g>
		<path fill="#628037" d="M169.023,87.97c0,0,7.742-1.135,4.836-4.359S169.023,87.97,169.023,87.97z"/>
		<path fill="#628037" d="M147.02,110.451c0,0-7.742,1.135-4.837,4.359C145.089,118.034,147.02,110.451,147.02,110.451z"/>
	</g>
	<g>
		<path fill="#628037" d="M174.038,99.042c0,0,6.276,4.672,6.502,0.337C180.765,95.044,174.038,99.042,174.038,99.042z"/>
		<path fill="#628037" d="M142.582,99.379c0,0-6.277-4.672-6.502-0.337C135.854,103.376,142.582,99.379,142.582,99.379z"/>
	</g>
	<g>
		<path fill="#628037" d="M149.873,76.477c0,0,1.25-4.15-1.051-3.451C146.522,73.727,149.873,76.477,149.873,76.477z"/>
		<path fill="#628037" d="M166.747,122.56c0,0-1.251,4.15,1.05,3.451C170.098,125.31,166.747,122.56,166.747,122.56z"/>
	</g>
	<g>
		<path fill="#628037" d="M136.133,109.959c0,0-4.26-0.807-3.32,1.409C133.751,113.582,136.133,109.959,136.133,109.959z"/>
		<path fill="#628037" d="M180.18,88.321c0,0,4.26,0.806,3.32-1.407C182.562,84.699,180.18,88.321,180.18,88.321z"/>
	</g>
	<g>
		<path fill="#628037" d="M168.636,77.26c0,0,3.819-2.051,1.698-3.183C168.212,72.946,168.636,77.26,168.636,77.26z"/>
		<path fill="#628037" d="M147.983,121.777c0,0-3.819,2.051-1.698,3.182C148.407,126.091,147.983,121.777,147.983,121.777z"/>
	</g>
	<g>
		<path fill="#628037" d="M180.946,108.609c0,0,2.195,3.738,3.245,1.575C185.242,108.021,180.946,108.609,180.946,108.609z"/>
		<path fill="#628037" d="M135.673,89.672c0,0-2.195-3.739-3.245-1.575S135.673,89.672,135.673,89.672z"/>
	</g>
</g>
<g>
	<path fill="#696A21" d="M66.325,231.952c11.255,7.331,22.319,13.274,35.072,17.487c4.345,1.437,8.803,2.858,13.377,2.737
		c4.573-0.121,10.176-2.729,12.509-6.666c4.339-1.454,8.068-6.382,9.147-10.828s0.626-9.104,0.139-13.653
		c-1.439-13.354-4.925-25.42-9.724-37.965c-4.8-12.544-12.996-24.23-24.722-30.782c-15.176-8.478-33.98-7.425-47.646,3.101
		c-13.163,11.147-18.146,29.309-13.048,45.928C45.368,214.152,55.071,224.622,66.325,231.952z"/>
	<path fill="#363519" d="M54.115,154.955c13.785-10.617,32.728-11.852,48.282-3.162c10.729,5.994,19.599,17.029,24.971,31.071
		c5.442,14.22,8.452,25.973,9.758,38.104c0.463,4.298,0.986,9.166-0.15,13.848c-1.016,4.183-4.612,9.472-9.317,11.158
		c-2.64,4.245-8.565,6.649-12.869,6.763c-4.813,0.127-9.464-1.408-13.567-2.764c-11.586-3.828-22.444-9.241-35.202-17.551l0,0
		c-12.599-8.208-21.522-19.197-25.126-30.946C35.668,184.442,40.859,166.182,54.115,154.955z M130.425,243.106
		c2.754-2.225,4.76-5.669,5.461-8.555c1.089-4.491,0.576-9.258,0.125-13.462c-1.296-12.033-4.284-23.698-9.689-37.825
		c-5.279-13.796-13.97-24.625-24.472-30.492c-15.16-8.47-33.621-7.271-47.029,3.055c-12.893,10.921-17.947,28.716-12.854,45.319
		c3.527,11.499,12.288,22.273,24.667,30.335c12.674,8.255,23.451,13.63,34.941,17.426c4.016,1.326,8.567,2.83,13.186,2.708
		c4.063-0.106,9.663-2.384,12.041-6.391l0.106-0.18l0.197-0.066C128.295,244.579,129.411,243.926,130.425,243.106z"/>
</g>
<path fill="#9CB92B" d="M56.242,157.566c12.692-9.74,30.156-10.854,44.513-2.833c10.043,5.609,18.377,16.026,23.469,29.335
	c5.334,13.937,8.281,25.429,9.554,37.262c0.433,4.022,0.924,8.582-0.074,12.69c-0.648,2.673-2.496,5.554-4.709,7.341
	c-0.866,0.698-1.74,1.199-2.604,1.489l-0.988,0.332l-0.532,0.896c-0.464,0.782-1.139,1.533-2.004,2.232
	c-2.212,1.787-5.417,2.988-8.165,3.061c-4.227,0.111-8.582-1.327-12.423-2.596c-11.301-3.732-21.917-9.03-34.421-17.174
	c-11.939-7.776-20.372-18.115-23.745-29.112C39.29,184.766,44.051,167.926,56.242,157.566z"/>
<path fill="#FFF1A5" d="M59.77,161.934c10.9-8.294,25.897-9.202,38.248-2.301c8.896,4.97,16.342,14.36,20.965,26.442
	c5.153,13.467,7.994,24.525,9.214,35.855c0.386,3.567,0.819,7.609,0.053,10.768c-0.358,1.479-1.528,3.285-2.781,4.298
	c-0.482,0.389-0.781,0.507-0.861,0.534l-2.968,0.994l-1.597,2.693c-0.042,0.071-0.221,0.339-0.701,0.728
	c-1.254,1.013-3.267,1.776-4.788,1.817c-3.248,0.085-7.109-1.191-10.514-2.315c-10.822-3.575-21.036-8.68-33.118-16.548
	c-10.839-7.061-18.453-16.313-21.442-26.057C45.329,185.316,49.369,170.846,59.77,161.934z"/>
<g>
	<path fill="#C4A138" d="M67.774,171.843c10.002-8.08,24.714-6.516,32.794,3.487c3.919,4.853,6.152,11.466,6.123,18.145
		c-0.032,7.261-2.691,13.393-7.492,17.271c-4.799,3.877-11.355,5.188-18.46,3.693c-6.535-1.377-12.531-4.949-16.451-9.803
		C56.208,194.634,57.771,179.923,67.774,171.843z"/>
	<path fill="#823311" d="M66.472,202.873c-7.12-8.813-5.747-21.729,3.066-28.848c8.813-7.119,21.729-5.745,28.848,3.068
		c7.119,8.813,7.863,24.349-0.949,31.468C88.623,215.682,73.591,211.686,66.472,202.873z"/>
</g>
<g>
	<circle fill="#B7CF3F" cx="72.678" cy="280.718" r="31.375"/>
	<circle fill="#E6E99E" cx="72.679" cy="280.718" r="29.218"/>
	<circle fill="#B7CF3F" cx="72.679" cy="280.721" r="26.103"/>
	<g>
		<defs>
			<circle id="SVGID_1_" cx="72.674" cy="280.653" r="26.261"/>
		</defs>
		<clipPath id="SVGID_2_">
			<use xlink:href="#SVGID_1_"  overflow="visible"/>
		</clipPath>
		
			<rect x="71.812" y="240.562" transform="matrix(-0.9978 0.0657 -0.0657 -0.9978 164.1393 555.4406)" clip-path="url(#SVGID_2_)" fill="#E6E99E" width="2.261" height="79.71"/>
		
			<rect x="71.548" y="240.863" transform="matrix(-0.0656 -0.9978 0.9978 -0.0656 -202.6642 371.6632)" clip-path="url(#SVGID_2_)" fill="#E6E99E" width="2.262" height="79.71"/>
		
			<rect x="71.246" y="240.975" transform="matrix(-0.7522 -0.659 0.659 -0.7522 -57.6371 539.7734)" clip-path="url(#SVGID_2_)" fill="#E6E99E" width="2.865" height="79.499"/>
		
			<rect x="71.242" y="240.904" transform="matrix(0.6591 -0.752 0.752 0.6591 -186.2867 150.3187)" clip-path="url(#SVGID_2_)" fill="#E6E99E" width="2.865" height="79.5"/>
	</g>
</g>
</svg>
