<?xml version="1.0" encoding="utf-8"?>
<!-- Generator: Adobe Illustrator 16.0.0, SVG Export Plug-In . SVG Version: 6.00 Build 0)  -->
<!DOCTYPE svg PUBLIC "-//W3C//DTD SVG 1.1//EN" "http://www.w3.org/Graphics/SVG/1.1/DTD/svg11.dtd">
<svg version="1.1" id="Layer_1" xmlns="http://www.w3.org/2000/svg" xmlns:xlink="http://www.w3.org/1999/xlink" x="0px" y="0px"
	 width="220px" height="340px" viewBox="0 0 220 340" enable-background="new 0 0 220 340" xml:space="preserve">
<path fill="#ACACAC" fill-opacity="0.4" stroke="#FFFFFF" stroke-width="9.5798" stroke-miterlimit="10" d="M190.418,325.567
	c0,5.303-4.281,9.6-9.563,9.6l-140.777-0.092c-5.281,0-9.562-4.297-9.562-9.6L5.272,14.877c0-5.3,4.281-9.597,9.562-9.597h190.229
	c5.281,0,9.563,4.297,9.563,9.597L190.418,325.567z"/>
<g>
	
		<path fill="none" stroke="#B08E72" stroke-width="2.9326" stroke-linecap="round" stroke-linejoin="round" stroke-miterlimit="10" d="
		M57.25,144.358c0,0-9.864-14.285-23.204-7.549"/>
	
		<path fill="#20A84A" stroke="#009139" stroke-width="2.9326" stroke-linecap="round" stroke-linejoin="round" stroke-miterlimit="10" d="
		M62.188,106.431c0,0,16.231,20.774-6.295,32.16C41.431,129.803,62.188,106.431,62.188,106.431z"/>
	<path fill="#71B744" stroke="#3D7830" stroke-width="2.9326" stroke-miterlimit="10" d="M63.926,136.406
		c-6.545,3.753-3.129,6.274-6.318,8.811c-3.8,1.47-4.249-2.752-10.794,1.001c-4.217,2.417-19.759,13.78-8.882,32.751
		c10.877,18.972,32.547,24.402,38.212,21.154c5.504-3.156,4.055-5.185,8.329-8.049c4.632-2.242,5.651,0.033,11.155-3.122
		c5.665-3.249,11.926-24.693,1.048-43.665C85.8,126.316,68.142,133.989,63.926,136.406z"/>
	<path fill="#71B744" stroke="#3D7830" stroke-width="2.9326" stroke-miterlimit="10" d="M39.715,163.283
		c1.852,12.848,13.446,26.301,26.195,29.446"/>
</g>
<g>
	
		<path fill="#20A84A" stroke="#009139" stroke-width="2.0162" stroke-linecap="round" stroke-linejoin="round" stroke-miterlimit="10" d="
		M111.109,76.243c0,0,11.052-6.001,16.309,3.315C119.192,85.855,111.109,76.243,111.109,76.243z"/>
	<path fill="#E94C5B" stroke="#E73635" stroke-width="2.0162" stroke-miterlimit="10" d="M113.494,113.012
		c2.299,0.814,2.707-1.001,5.91,0.133c3.205,1.134,7.053,5.319,4.438,12.702c-2.614,7.384-10.202,11.986-17.514,9.397
		c-7.314-2.589-11.634-10.312-8.774-18.392c2.861-8.08,9.714-7.731,12.152-6.868C112.145,110.849,110.743,112.038,113.494,113.012z"
		/>
	<path fill="#E94C5B" stroke="#E73635" stroke-width="2.0162" stroke-miterlimit="10" d="M89.609,93.978
		c1.233,1.274,3.474,0.565,5.938,2.452c2.466,1.886,4.841,6.077-0.683,13.294c-5.523,7.218-13.748,7.205-19.469,2.826
		c-5.722-4.378-6.003-14.224-1.354-20.297c4.647-6.073,10.813-4.006,12.925-2.39C89.078,91.479,88.795,93.136,89.609,93.978z"/>
	
		<path fill="none" stroke="#009139" stroke-width="2.0162" stroke-linecap="round" stroke-linejoin="round" stroke-miterlimit="10" d="
		M89.041,95.448c0,0,14.063-7.392,18.323-15.423c1.618-3.074,1.32-3.47,1.32-3.47s12.831,27.225,3.583,39.124"/>
	
		<path fill="#E94C5B" stroke="#E73635" stroke-width="2.0162" stroke-linecap="round" stroke-linejoin="round" stroke-miterlimit="10" d="
		M109.052,112.684c-0.704,2.243,0.448,4.645,2.68,5.452c2.231,0.807,4.703-0.447,5.55-2.493l0.016,0.005"/>
	
		<path fill="#E94C5B" stroke="#E73635" stroke-width="2.0162" stroke-linecap="round" stroke-linejoin="round" stroke-miterlimit="10" d="
		M87.131,92.509c-1.295,1.418-1.278,3.597,0.098,4.965c1.375,1.367,3.554,1.374,4.966,0.07l0.015,0.017"/>
</g>
<g>
	<circle fill="#6E7382" stroke="#324A78" stroke-width="3.9835" stroke-miterlimit="10" cx="168.059" cy="234.61" r="17.257"/>
	
		<path fill="none" stroke="#B08E72" stroke-width="3.9835" stroke-linecap="round" stroke-linejoin="round" stroke-miterlimit="10" d="
		M116.786,185.535c0,0,2.967,16.662,30.645,18.26c-15.389-0.318-8.58-0.369-21.686,29.683"/>
	<circle fill="#6E7382" stroke="#324A78" stroke-width="3.9835" stroke-miterlimit="10" cx="110.717" cy="306.546" r="17.257"/>
	<circle fill="#6E7382" stroke="#324A78" stroke-width="3.9835" stroke-miterlimit="10" cx="100.484" cy="279.654" r="17.257"/>
	<circle fill="#6E7382" stroke="#324A78" stroke-width="3.9835" stroke-miterlimit="10" cx="131.777" cy="287.225" r="17.257"/>
	<circle fill="#6E7382" stroke="#324A78" stroke-width="3.9835" stroke-miterlimit="10" cx="148.996" cy="261.58" r="17.257"/>
	<circle fill="#6E7382" stroke="#324A78" stroke-width="3.9835" stroke-miterlimit="10" cx="121.273" cy="257.035" r="17.257"/>
	<circle fill="#6E7382" stroke="#324A78" stroke-width="3.9835" stroke-miterlimit="10" cx="95.654" cy="249.582" r="17.257"/>
	<circle fill="#6E7382" stroke="#324A78" stroke-width="3.9835" stroke-miterlimit="10" cx="90.032" cy="219.378" r="17.258"/>
	<circle fill="#6E7382" stroke="#324A78" stroke-width="3.9835" stroke-miterlimit="10" cx="143.503" cy="230.584" r="17.258"/>
	<circle fill="#6E7382" stroke="#324A78" stroke-width="3.9835" stroke-miterlimit="10" cx="119.741" cy="226.689" r="17.257"/>
	<circle fill="#324A78" cx="145.577" cy="236.432" r="2.994"/>
	<circle fill="#324A78" cx="87.211" cy="220.356" r="2.993"/>
	<circle fill="#324A78" cx="92.976" cy="254.649" r="2.993"/>
	<circle fill="#324A78" cx="120.18" cy="262.363" r="2.993"/>
	<circle fill="#324A78" cx="147.902" cy="266.908" r="2.993"/>
	<circle fill="#324A78" cx="129.101" cy="292.293" r="2.993"/>
	<circle fill="#324A78" cx="99.52" cy="284.19" r="2.993"/>
	<circle fill="#324A78" cx="108.57" cy="313.328" r="2.993"/>
	<circle fill="#324A78" cx="118.647" cy="232.017" r="2.994"/>
	<circle fill="#324A78" cx="174.21" cy="235.432" r="2.993"/>
</g>
<g>
	
		<path fill="#EC6650" stroke="#EA503B" stroke-width="2.9422" stroke-linecap="round" stroke-linejoin="round" stroke-miterlimit="10" d="
		M177.326,140.333c-14.747-7.442-24.091,3.896-30.609,8.796c-6.528,4.89-20.023,10.693-16.998,26.933
		c2.931,15.728,38.664,30.681,53.062,22.576c0.257-0.145,0.509-0.296,0.75-0.454c0.222-0.188,0.438-0.389,0.647-0.594
		C195.984,186.029,191.609,147.541,177.326,140.333z"/>
	
		<path fill="#20A84A" stroke="#009139" stroke-width="2.9422" stroke-linecap="round" stroke-linejoin="round" stroke-miterlimit="10" d="
		M155.602,129.438c-4.864,1.712-8.38,4.689-10.611,7.668c-2.237-3.588-6.957-7.679-13.94-9.069
		c-1.237,7.624,1.871,13.054,4.72,16.036c-3.515,1.296-7.405,3.847-10.441,8.085c8.301,5.131,16.194,2.488,19.238,0.583
		c0.895-0.493,2.027-1.233,3.217-2.126c1.165-0.875,2.174-1.736,2.896-2.449C153.336,145.867,158.244,138.973,155.602,129.438z"/>
	<path fill="#FDD7AC" d="M157.579,163.854c0,0-0.352-8.259-4.055-5.556C149.819,161,157.579,163.854,157.579,163.854z"/>
	<path fill="#FDD7AC" d="M139.696,177.274c0,0-0.351-8.261-4.055-5.557C131.937,174.421,139.696,177.274,139.696,177.274z"/>
	<path fill="#FCD5AD" d="M174.119,151.44c0,0-0.35-8.26-4.055-5.556C166.361,148.586,174.119,151.44,174.119,151.44z"/>
	<path fill="#FDD7AC" d="M175.467,169.997c0,0-0.35-8.26-4.055-5.557C167.707,167.143,175.467,169.997,175.467,169.997z"/>
	<path fill="#FDD7AC" d="M158.479,182.745c0,0-0.351-8.259-4.056-5.556C150.72,179.893,158.479,182.745,158.479,182.745z"/>
	<path fill="#FDD7AC" d="M178.155,190.341c0,0-0.35-8.258-4.054-5.557C170.397,187.488,178.155,190.341,178.155,190.341z"/>
</g>
<g>
	
		<path fill="#20A84A" stroke="#009139" stroke-width="1.6597" stroke-linecap="round" stroke-linejoin="round" stroke-miterlimit="10" d="
		M51.08,282.807c0,0,3.001-9.908,11.469-7.493C61.374,283.76,51.08,282.807,51.08,282.807z"/>
	<path fill="#E94C5B" stroke="#E73635" stroke-width="1.6597" stroke-miterlimit="10" d="M73.746,302.961
		c1.818-0.854,1.007-2.151,3.539-3.341c2.533-1.189,7.207-0.965,9.947,4.871c2.74,5.837,0.959,12.922-4.82,15.636
		c-5.782,2.714-12.78,0.69-15.778-5.696c-2.999-6.387,1.217-10.146,3.145-11.051C71.705,302.475,71.572,303.982,73.746,302.961z"/>
	<path fill="#E94C5B" stroke="#E73635" stroke-width="1.6597" stroke-miterlimit="10" d="M48.747,305.631
		c1.459,0.032,2.362-1.679,4.896-1.999c2.536-0.322,6.351,0.758,7.291,8.18c0.94,7.422-3.884,12.173-9.768,12.918
		c-5.884,0.745-11.744-4.858-12.535-11.104c-0.791-6.244,4.015-8.601,6.188-8.876C46.99,304.474,47.783,305.608,48.747,305.631z"/>
	
		<path fill="none" stroke="#009139" stroke-width="1.6597" stroke-linecap="round" stroke-linejoin="round" stroke-miterlimit="10" d="
		M49.264,306.82c0,0,3.96-12.465,1.81-19.633c-0.831-2.736-1.234-2.795-1.234-2.795s23.263,8.521,24.729,20.84"/>
	
		<path fill="#E94C5B" stroke="#E73635" stroke-width="1.6597" stroke-linecap="round" stroke-linejoin="round" stroke-miterlimit="10" d="
		M70.956,305.339c0.885,1.72,2.949,2.461,4.723,1.643s2.497-2.982,1.808-4.671l0.013-0.006"/>
	
		<path fill="#E94C5B" stroke="#E73635" stroke-width="2" stroke-linecap="round" stroke-linejoin="round" stroke-miterlimit="10" d="
		M46.274,306.091c0.062,1.58,1.418,2.791,3.014,2.796c1.597,0.006,2.963-0.887,3.036-2.887H52"/>
</g>
<g>
	
		<path fill="#EC6650" stroke="#EA503B" stroke-width="1.7777" stroke-linecap="round" stroke-linejoin="round" stroke-miterlimit="10" d="
		M63.746,232.312c-8.911-4.497-14.556,2.354-18.495,5.314c-3.945,2.954-12.099,6.46-10.271,16.273
		c1.771,9.503,23.361,18.536,32.06,13.64c0.155-0.086,0.308-0.178,0.454-0.273c0.133-0.114,0.264-0.235,0.391-0.358
		C75.019,259.921,72.376,236.666,63.746,232.312z"/>
	
		<path fill="#20A84A" stroke="#009139" stroke-width="1.7777" stroke-linecap="round" stroke-linejoin="round" stroke-miterlimit="10" d="
		M50.62,225.728c-2.939,1.035-5.063,2.833-6.412,4.634c-1.352-2.169-4.204-4.641-8.423-5.479c-0.748,4.605,1.13,7.888,2.852,9.688
		c-2.124,0.783-4.474,2.324-6.309,4.886c5.016,3.101,9.785,1.504,11.624,0.353c0.541-0.299,1.225-0.745,1.944-1.284
		c0.704-0.529,1.313-1.05,1.75-1.481C49.251,235.655,52.217,231.489,50.62,225.728z"/>
	<path fill="#FDD7AC" d="M51.814,246.521c0,0-0.211-4.989-2.45-3.357C47.126,244.798,51.814,246.521,51.814,246.521z"/>
	<path fill="#FDD7AC" d="M41.009,254.632c0,0-0.212-4.991-2.45-3.358C36.321,252.907,41.009,254.632,41.009,254.632z"/>
	<path fill="#FCD5AD" d="M61.808,239.022c0,0-0.211-4.991-2.45-3.357C57.121,237.297,61.808,239.022,61.808,239.022z"/>
	<path fill="#FDD7AC" d="M62.622,250.234c0,0-0.211-4.991-2.45-3.357C57.934,248.51,62.622,250.234,62.622,250.234z"/>
	<path fill="#FDD7AC" d="M52.358,257.938c0,0-0.212-4.99-2.45-3.358C47.67,256.213,52.358,257.938,52.358,257.938z"/>
	<path fill="#FDD7AC" d="M64.247,262.525c0,0-0.211-4.988-2.449-3.357C59.56,260.803,64.247,262.525,64.247,262.525z"/>
</g>
<g>
	<path fill="#6E7382" stroke="#324A78" stroke-width="2.6486" stroke-miterlimit="10" d="M196.413,37.753
		c2.383,5.872-0.445,12.563-6.316,14.946c-5.873,2.382-12.564-0.447-14.946-6.318c-2.383-5.872,0.444-12.563,6.319-14.946
		C187.339,29.052,194.031,31.881,196.413,37.753z"/>
	
		<path fill="none" stroke="#B08E72" stroke-width="2.6486" stroke-linecap="round" stroke-linejoin="round" stroke-miterlimit="10" d="
		M139.687,31.975c0,0,7.454,8.429,23.717-0.25c-8.845,5.149-4.998,2.761-2.028,24.356"/>
	<circle fill="#6E7382" stroke="#324A78" stroke-width="2.6486" stroke-miterlimit="10" cx="178.156" cy="102.754" r="11.474"/>
	<circle fill="#6E7382" stroke="#324A78" stroke-width="2.6486" stroke-miterlimit="10" cx="163.034" cy="91.036" r="11.473"/>
	<circle fill="#6E7382" stroke="#324A78" stroke-width="2.6486" stroke-miterlimit="10" cx="183.416" cy="84.494" r="11.474"/>
	<circle fill="#6E7382" stroke="#324A78" stroke-width="2.6486" stroke-miterlimit="10" cx="184.305" cy="63.976" r="11.474"/>
	<circle fill="#6E7382" stroke="#324A78" stroke-width="2.6486" stroke-miterlimit="10" cx="166.998" cy="70.999" r="11.474"/>
	<path fill="#6E7382" stroke="#324A78" stroke-width="2.6486" stroke-miterlimit="10" d="M160.508,71.329
		c2.382,5.871-0.445,12.563-6.318,14.944c-5.872,2.384-12.563-0.445-14.946-6.316c-2.383-5.873,0.446-12.563,6.317-14.946
		C151.436,62.628,158.124,65.456,160.508,71.329z"/>
	<circle fill="#6E7382" stroke="#324A78" stroke-width="2.6486" stroke-miterlimit="10" cx="136.225" cy="60.448" r="11.474"/>
	<circle fill="#6E7382" stroke="#324A78" stroke-width="2.6486" stroke-miterlimit="10" cx="170.452" cy="48.288" r="11.475"/>
	<circle fill="#6E7382" stroke="#324A78" stroke-width="2.6486" stroke-miterlimit="10" cx="155.617" cy="54.307" r="11.473"/>
	<circle fill="#324A78" cx="173.654" cy="50.888" r="1.99"/>
	<circle fill="#324A78" cx="134.962" cy="61.98" r="1.99"/>
	<circle fill="#324A78" cx="150.112" cy="79.447" r="1.99"/>
	<circle fill="#324A78" cx="168.223" cy="74.402" r="1.99"/>
	<circle fill="#324A78" cx="185.53" cy="67.378" r="1.99"/>
	<circle fill="#324A78" cx="183.651" cy="88.298" r="1.99"/>
	<circle fill="#324A78" cx="164.058" cy="93.944" r="1.99"/>
	<circle fill="#324A78" cx="179.287" cy="107.347" r="1.989"/>
	<circle fill="#324A78" cx="156.842" cy="57.71" r="1.99"/>
	<circle fill="#324A78" cx="189.558" cy="40.404" r="1.99"/>
</g>
<g>
	
		<path fill="#EC6650" stroke="#EA503B" stroke-width="2.8268" stroke-linecap="round" stroke-linejoin="round" stroke-miterlimit="10" d="
		M82.746,68.536c1.426-15.806-12.008-20.138-18.693-24.225c-6.678-4.1-16.639-14.099-30.073-5.646
		C20.971,46.85,20.266,84.06,32.602,94.049c0.22,0.178,0.445,0.35,0.671,0.509c0.247,0.131,0.502,0.253,0.76,0.368
		C48.539,101.378,81.365,83.845,82.746,68.536z"/>
	
		<path fill="#20A84A" stroke="#009139" stroke-width="2.8268" stroke-linecap="round" stroke-linejoin="round" stroke-miterlimit="10" d="
		M84.786,45.275c-3.251-3.738-7.155-5.825-10.605-6.763c2.412-3.269,4.395-8.933,3.164-15.662
		c-7.247,1.594-10.996,6.293-12.651,9.893c-2.402-2.68-6.058-5.252-10.918-6.463c-1.644,9.23,3.511,15.345,6.291,17.39
		c0.757,0.624,1.819,1.374,3.038,2.12c1.194,0.73,2.32,1.327,3.212,1.719C69.311,49.068,77.206,51.011,84.786,45.275z"/>
	<path fill="#FDD7AC" d="M54.748,59.226c0,0,7.253-3.238,3.528-5.588C54.549,51.285,54.748,59.226,54.748,59.226z"/>
	<path fill="#FDD7AC" d="M36.43,48.005c0,0,7.254-3.237,3.527-5.589C36.231,40.064,36.43,48.005,36.43,48.005z"/>
	<path fill="#FCD5AD" d="M71.691,69.604c0,0,7.254-3.236,3.526-5.588C71.494,61.665,71.691,69.604,71.691,69.604z"/>
	<path fill="#FDD7AC" d="M55.595,77.377c0,0,7.253-3.236,3.527-5.589C55.396,69.436,55.595,77.377,55.595,77.377z"/>
	<path fill="#FDD7AC" d="M38.193,66.718c0,0,7.252-3.237,3.526-5.589C37.994,58.778,38.193,66.718,38.193,66.718z"/>
	<path fill="#FDD7AC" d="M38.375,86.981c0,0,7.252-3.236,3.528-5.588C38.177,79.042,38.375,86.981,38.375,86.981z"/>
</g>
</svg>
