<?xml version="1.0" encoding="utf-8"?>
<!-- Generator: Adobe Illustrator 16.0.0, SVG Export Plug-In . SVG Version: 6.00 Build 0)  -->
<!DOCTYPE svg PUBLIC "-//W3C//DTD SVG 1.1//EN" "http://www.w3.org/Graphics/SVG/1.1/DTD/svg11.dtd">
<svg version="1.1" id="Layer_1" xmlns="http://www.w3.org/2000/svg" xmlns:xlink="http://www.w3.org/1999/xlink" x="0px" y="0px"
	 width="220px" height="340px" viewBox="0 0 220 340" enable-background="new 0 0 220 340" xml:space="preserve">
<path fill="#ACACAC" fill-opacity="0.4" stroke="#FFFFFF" stroke-width="9.5798" stroke-miterlimit="10" d="M190.418,325.567
	c0,5.303-4.281,9.6-9.563,9.6l-140.777-0.092c-5.281,0-9.562-4.297-9.562-9.6L5.272,14.877c0-5.3,4.281-9.597,9.562-9.597h190.229
	c5.281,0,9.563,4.297,9.563,9.597L190.418,325.567z"/>
<g>
	<circle fill="#F8AB30" cx="80.885" cy="282.139" r="38.041"/>
	<circle fill="#FFE76F" cx="80.884" cy="282.139" r="35.427"/>
	<circle fill="#F8AB30" cx="80.885" cy="282.143" r="31.648"/>
	<g>
		<defs>
			<circle id="SVGID_1_" cx="80.879" cy="282.061" r="31.841"/>
		</defs>
		<clipPath id="SVGID_2_">
			<use xlink:href="#SVGID_1_"  overflow="visible"/>
		</clipPath>
		
			<rect x="79.833" y="233.451" transform="matrix(-0.9979 0.0655 -0.0655 -0.9979 180.701 557.6201)" clip-path="url(#SVGID_2_)" fill="#FFE76F" width="2.742" height="96.645"/>
		
			<rect x="79.514" y="233.816" transform="matrix(-0.0657 -0.9978 0.9978 -0.0657 -195.3296 381.3864)" clip-path="url(#SVGID_2_)" fill="#FFE76F" width="2.742" height="96.645"/>
		
			<rect x="79.149" y="233.952" transform="matrix(-0.7521 -0.659 0.659 -0.7521 -44.2274 547.6591)" clip-path="url(#SVGID_2_)" fill="#FFE76F" width="3.473" height="96.39"/>
		
			<rect x="79.143" y="233.865" transform="matrix(0.6591 -0.752 0.752 0.6591 -184.5493 156.9727)" clip-path="url(#SVGID_2_)" fill="#FFE76F" width="3.474" height="96.391"/>
	</g>
	<g>
		<path fill="#DD6E46" d="M76.571,272.437c0,0,0.867-5.516-1.945-4.219S76.571,272.437,76.571,272.437z"/>
		<path fill="#DD6E46" d="M85.979,292.354c0,0-1.17,5.459,1.709,4.319C90.567,295.533,85.979,292.354,85.979,292.354z"/>
	</g>
	<g>
		<path fill="#DD6E46" d="M77.167,292.779c0,0-4.513,3.286-1.608,4.358C78.464,298.209,77.167,292.779,77.167,292.779z"/>
		<path fill="#DD6E46" d="M84.598,272.043c0,0,4.688-3.032,1.846-4.262C83.602,266.551,84.598,272.043,84.598,272.043z"/>
	</g>
	<g>
		<path fill="#DD6E46" d="M91.222,277.807c0,0,5.515,0.867,4.219-1.945C94.144,273.05,91.222,277.807,91.222,277.807z"/>
		<path fill="#DD6E46" d="M71.305,287.215c0,0-5.459-1.17-4.319,1.709C68.125,291.803,71.305,287.215,71.305,287.215z"/>
	</g>
	<g>
		<path fill="#DD6E46" d="M70.883,278.262c0,0-3.286-4.513-4.358-1.607C65.453,279.56,70.883,278.262,70.883,278.262z"/>
		<path fill="#DD6E46" d="M91.619,285.693c0,0,3.032,4.688,4.263,1.846C97.112,284.697,91.619,285.693,91.619,285.693z"/>
	</g>
</g>
<g>
	
		<path fill="#20A84A" stroke="#009139" stroke-width="2.069" stroke-linecap="round" stroke-linejoin="round" stroke-miterlimit="10" d="
		M40.145,176.127c0,0,3.322,16.783,20.805,10.839C61.824,175.252,48.013,174.028,40.145,176.127z"/>
	
		<path fill="none" stroke="#B08E72" stroke-width="2.069" stroke-linecap="round" stroke-linejoin="round" stroke-miterlimit="10" d="
		M64.155,192.152c0,0-6.526-3.496,2.564-12.588"/>
	<path fill="#EE7542" stroke="#E95314" stroke-width="2.069" stroke-miterlimit="10" d="M39.026,213.788
		c0,13.729,10.187,24.359,22.367,24.359c12.18,0,23.695-10.187,23.695-23.474s-11.349-22.478-23.031-22.478
		S39.026,203.158,39.026,213.788z"/>
	<circle fill="#E95314" cx="72.499" cy="204.452" r="1.971"/>
	<circle fill="#E95314" cx="77.099" cy="212.923" r="1.971"/>
	<circle fill="#E95314" cx="70.277" cy="218.611" r="2.256"/>
	<circle fill="#E95314" cx="67.429" cy="211.023" r="1.095"/>
</g>
<g>
	
		<path fill="#20A84A" stroke="#009139" stroke-width="2.069" stroke-linecap="round" stroke-linejoin="round" stroke-miterlimit="10" d="
		M184.179,279.378c0,0-12.083,12.112-23.321-2.54C166.636,266.61,178.802,273.264,184.179,279.378z"/>
	
		<path fill="none" stroke="#B08E72" stroke-width="2.069" stroke-linecap="round" stroke-linejoin="round" stroke-miterlimit="10" d="
		M155.313,279.371c0,0,7.368,0.717,4.858-11.892"/>
	<path fill="#EE7542" stroke="#E95314" stroke-width="2.069" stroke-miterlimit="10" d="M164.194,311.319
		c-7.624,11.417-22,14.601-32.128,7.837c-10.129-6.765-14.049-21.631-6.67-32.681s21.921-12.39,31.636-5.902
		S170.098,302.479,164.194,311.319z"/>
	<circle fill="#E95314" cx="141.542" cy="284.966" r="1.971"/>
	<circle fill="#E95314" cx="133.012" cy="289.456" r="1.971"/>
	<circle fill="#E95314" cx="135.526" cy="297.975" r="2.256"/>
	<circle fill="#E95314" cx="142.109" cy="293.246" r="1.096"/>
</g>
<g>
	<circle fill="#F8AB30" cx="50.219" cy="144.139" r="26.042"/>
	<circle fill="#FFE76F" cx="50.218" cy="144.139" r="24.252"/>
	<circle fill="#F8AB30" cx="50.219" cy="144.142" r="21.665"/>
	<g>
		<defs>
			<circle id="SVGID_3_" cx="50.215" cy="144.085" r="21.797"/>
		</defs>
		<clipPath id="SVGID_4_">
			<use xlink:href="#SVGID_3_"  overflow="visible"/>
		</clipPath>
		
			<rect x="49.498" y="110.809" transform="matrix(-0.9979 0.0655 -0.0655 -0.9979 110.1949 284.1631)" clip-path="url(#SVGID_4_)" fill="#FFE76F" width="1.878" height="66.16"/>
		
			<rect x="49.28" y="111.059" transform="matrix(-0.0661 -0.9978 0.9978 -0.0661 -90.2875 203.7705)" clip-path="url(#SVGID_4_)" fill="#FFE76F" width="1.877" height="66.16"/>
		
			<rect x="49.03" y="111.152" transform="matrix(-0.7522 -0.659 0.659 -0.7522 -6.993 285.6597)" clip-path="url(#SVGID_4_)" fill="#FFE76F" width="2.378" height="65.985"/>
		
			<rect x="49.026" y="111.092" transform="matrix(0.6592 -0.752 0.752 0.6592 -91.236 86.8689)" clip-path="url(#SVGID_4_)" fill="#FFE76F" width="2.378" height="65.986"/>
	</g>
	<g>
		<path fill="#DD6E46" d="M47.265,137.497c0,0,0.594-3.775-1.331-2.888C44.009,135.497,47.265,137.497,47.265,137.497z"/>
		<path fill="#DD6E46" d="M53.705,151.131c0,0-0.8,3.737,1.17,2.957C56.846,153.308,53.705,151.131,53.705,151.131z"/>
	</g>
	<g>
		<path fill="#DD6E46" d="M47.673,151.423c0,0-3.089,2.25-1.101,2.983C48.561,155.14,47.673,151.423,47.673,151.423z"/>
		<path fill="#DD6E46" d="M52.76,137.228c0,0,3.209-2.076,1.263-2.917C52.078,133.467,52.76,137.228,52.76,137.228z"/>
	</g>
	<g>
		<path fill="#DD6E46" d="M57.294,141.173c0,0,3.775,0.593,2.888-1.332C59.295,137.917,57.294,141.173,57.294,141.173z"/>
		<path fill="#DD6E46" d="M43.661,147.614c0,0-3.738-0.801-2.958,1.17S43.661,147.614,43.661,147.614z"/>
	</g>
	<g>
		<path fill="#DD6E46" d="M43.371,141.484c0,0-2.249-3.089-2.983-1.1C39.654,142.373,43.371,141.484,43.371,141.484z"/>
		<path fill="#DD6E46" d="M57.566,146.572c0,0,2.076,3.208,2.918,1.263C61.327,145.89,57.566,146.572,57.566,146.572z"/>
	</g>
</g>
<g>
	
		<path fill="#20A84A" stroke="#009139" stroke-width="2.658" stroke-linecap="round" stroke-linejoin="round" stroke-miterlimit="10" d="
		M109.492,48.442c0,0-15.523,15.561-29.961-3.263C86.955,32.04,102.584,40.588,109.492,48.442z"/>
	
		<path fill="none" stroke="#B08E72" stroke-width="2.658" stroke-linecap="round" stroke-linejoin="round" stroke-miterlimit="10" d="
		M72.408,48.434c0,0,9.466,0.921,6.241-15.277"/>
	<path fill="#EE7542" stroke="#E95314" stroke-width="2.658" stroke-miterlimit="10" d="M83.818,89.478
		c-9.794,14.667-28.263,18.757-41.274,10.068c-13.012-8.69-18.048-27.789-8.569-41.984c9.48-14.196,28.162-15.917,40.642-7.583
		C87.098,58.313,91.402,78.12,83.818,89.478z"/>
	<circle fill="#E95314" cx="54.718" cy="55.621" r="2.532"/>
	<circle fill="#E95314" cx="43.759" cy="61.39" r="2.532"/>
	<circle fill="#E95314" cx="46.989" cy="72.334" r="2.898"/>
	<path fill="#E95314" d="M54.274,65.477c-0.432,0.646-0.256,1.521,0.389,1.952c0.647,0.432,1.521,0.259,1.953-0.39
		c0.43-0.644,0.257-1.518-0.39-1.95C55.58,64.658,54.706,64.833,54.274,65.477z"/>
</g>
<g>
	<circle fill="#F8AB30" cx="170.885" cy="54.806" r="30.375"/>
	<circle fill="#FFE76F" cx="170.886" cy="54.805" r="28.287"/>
	<circle fill="#F8AB30" cx="170.885" cy="54.809" r="25.27"/>
	<g>
		<defs>
			<circle id="SVGID_5_" cx="170.881" cy="54.743" r="25.424"/>
		</defs>
		<clipPath id="SVGID_6_">
			<use xlink:href="#SVGID_5_"  overflow="visible"/>
		</clipPath>
		
			<rect x="170.045" y="15.93" transform="matrix(-0.9978 0.0656 -0.0656 -0.9978 345.4856 97.6891)" clip-path="url(#SVGID_6_)" fill="#FFE76F" width="2.189" height="77.169"/>
		
			<rect x="169.791" y="16.221" transform="matrix(-0.0656 -0.9978 0.9978 -0.0656 127.4032 228.9163)" clip-path="url(#SVGID_6_)" fill="#FFE76F" width="2.189" height="77.169"/>
		
			<rect x="169.498" y="16.331" transform="matrix(-0.7522 -0.6589 0.6589 -0.7522 263.3085 208.6443)" clip-path="url(#SVGID_6_)" fill="#FFE76F" width="2.774" height="76.964"/>
		
			<rect x="169.494" y="16.26" transform="matrix(0.6592 -0.752 0.752 0.6592 17.0729 147.1547)" clip-path="url(#SVGID_6_)" fill="#FFE76F" width="2.773" height="76.964"/>
	</g>
	<g>
		<path fill="#DD6E46" d="M167.439,47.058c0,0,0.693-4.403-1.552-3.368C163.644,44.726,167.439,47.058,167.439,47.058z"/>
		<path fill="#DD6E46" d="M174.952,62.961c0,0-0.935,4.36,1.364,3.449C178.615,65.501,174.952,62.961,174.952,62.961z"/>
	</g>
	<g>
		<path fill="#DD6E46" d="M167.917,63.302c0,0-3.604,2.623-1.284,3.479C168.951,67.638,167.917,63.302,167.917,63.302z"/>
		<path fill="#DD6E46" d="M173.85,46.744c0,0,3.742-2.421,1.474-3.403C173.055,42.358,173.85,46.744,173.85,46.744z"/>
	</g>
	<g>
		<path fill="#DD6E46" d="M179.139,51.347c0,0,4.404,0.692,3.368-1.554C181.472,47.548,179.139,51.347,179.139,51.347z"/>
		<path fill="#DD6E46" d="M163.235,58.858c0,0-4.358-0.934-3.448,1.364C160.696,62.521,163.235,58.858,163.235,58.858z"/>
	</g>
	<g>
		<path fill="#DD6E46" d="M162.898,51.709c0,0-2.622-3.604-3.479-1.283C158.563,52.746,162.898,51.709,162.898,51.709z"/>
		<path fill="#DD6E46" d="M179.456,57.644c0,0,2.421,3.743,3.403,1.474C183.841,56.849,179.456,57.644,179.456,57.644z"/>
	</g>
</g>
<g>
	
		<path fill="#87BD24" stroke="#71902C" stroke-width="4.4579" stroke-linecap="round" stroke-linejoin="round" stroke-miterlimit="10" d="
		M83.829,133.581c0,0,27.74,10.97,34.755,28.978c17.177-2.217,33.478-5.079,33.478-5.079s-4.821-16.395,21.427-33.219
		c-2.18-6.675-21.385-3.081-24.533,1.192c-0.07-8.163-4.792-11.388,8.062-35.375c-12.149,1.697-17.064,6.82-23.854,16.9
		c-5.282-8.833-9.71-20.712-8.876-30.618c0,0-14.554,9.895-8.364,36.589c-8.681-3.353-16.153-6.745-30.053-2.155
		c17.32,1.606,24.289,21.566,24.289,21.566S98.427,126.549,83.829,133.581z"/>
	<path fill="#FFCB00" stroke="#FFDC00" stroke-width="3.9729" stroke-miterlimit="10" d="M185.295,199.741
		c-6.173-40.679-33.33-52.061-53.09-49.896c-0.004-0.016-0.007-0.038-0.007-0.038s0.274-0.029,0.002,0.02
		c-0.273,0.036-0.002-0.019-0.002-0.019s0.003,0.023,0.007,0.039c-20.829,3.991-42.304,22.752-36.133,63.434
		c6.137,40.454,34.127,48.495,52.572,46.471c0.001,0.013,0.003,0.027,0.006,0.039c0,0-0.276,0.03-0.003-0.017
		c0.275-0.036,0.003,0.016,0.003,0.016c-0.003-0.012-0.005-0.027-0.006-0.04C165.551,256.412,191.432,240.197,185.295,199.741z"/>
	
		<rect x="114.729" y="141.85" transform="matrix(-0.8051 -0.5931 0.5931 -0.8051 104.6192 390.4787)" fill="#FFDF00" width="3.464" height="72.404"/>
	
		<rect x="131.927" y="148.506" transform="matrix(-0.8051 -0.5931 0.5931 -0.8051 123.3877 438.0411)" fill="#FFDF00" width="3.464" height="100.486"/>
	
		<rect x="149.848" y="169.008" transform="matrix(-0.805 -0.5933 0.5933 -0.805 144.7994 481.772)" fill="#FFDF00" width="3.465" height="96.16"/>
	
		<rect x="167.816" y="205.898" transform="matrix(-0.8052 -0.5929 0.5929 -0.8052 166.5196 525.4205)" fill="#FFDF00" width="3.464" height="58.93"/>
	
		<rect x="156.593" y="138.326" transform="matrix(-0.593 0.8052 -0.8052 -0.593 385.3385 135.8889)" fill="#FFDF00" width="3.465" height="54.014"/>
	
		<rect x="146.105" y="141.31" transform="matrix(-0.5928 0.8053 -0.8053 -0.5928 387.7126 182.0489)" fill="#FFDF00" width="3.461" height="95.45"/>
	
		<rect x="135.912" y="162.714" transform="matrix(-0.5933 0.805 -0.805 -0.5933 390.7356 228.4909)" fill="#FFDF00" width="3.463" height="100.487"/>
	
		<rect x="124.094" y="200.494" transform="matrix(-0.5933 0.8049 -0.8049 -0.5933 391.0093 275.8526)" fill="#FFDF00" width="3.461" height="72.401"/>
	<path fill="none" d="M185.948,199.644c-6.171-40.679-34.638-51.864-53.09-49.896c-0.003-0.016-0.006-0.04-0.006-0.04
		s-0.38,0.07-0.652,0.119c-0.273,0.036-0.657,0.078-0.657,0.078s0.005,0.025,0.006,0.04c-19.519,3.795-42.303,22.751-36.132,63.432
		c6.138,40.454,35.437,48.3,52.571,46.472c0.002,0.013,0.004,0.027,0.005,0.04c0,0,0.38-0.068,0.653-0.115
		c0.275-0.036,0.657-0.081,0.657-0.081c-0.003-0.013-0.005-0.03-0.006-0.042C166.205,256.312,192.087,240.099,185.948,199.644z"/>
</g>
</svg>
